ISO-10303-21;
HEADER;
FILE_DESCRIPTION (( 'STEP AP214' ),
    '1' );
FILE_NAME ('CGA3E3X7R1H105K080AB.STEP',
    '2025-07-18T13:13:28',
    ( '' ),
    ( '' ),
    'SwSTEP 2.0',
    'SolidWorks 2024',
    '' );
FILE_SCHEMA (( 'AUTOMOTIVE_DESIGN' ));
ENDSEC;

DATA;
#1 = EDGE_LOOP ( 'NONE', ( #484, #620, #1131 ) ) ;
#2 = EDGE_CURVE ( 'NONE', #1136, #66, #723, .T. ) ;
#3 = DIRECTION ( 'NONE',  ( -0.000000000000000000, -1.000000000000000000, 0.000000000000000000 ) ) ;
#4 = LINE ( 'NONE', #745, #1113 ) ;
#5 =( GEOMETRIC_REPRESENTATION_CONTEXT ( 3 ) GLOBAL_UNCERTAINTY_ASSIGNED_CONTEXT ( ( #105 ) ) GLOBAL_UNIT_ASSIGNED_CONTEXT ( ( #1112, #596, #278 ) ) REPRESENTATION_CONTEXT ( 'NONE', 'WORKASPACE' ) );
#6 = ORIENTED_EDGE ( 'NONE', *, *, #621, .F. ) ;
#7 = CYLINDRICAL_SURFACE ( 'NONE', #78, 0.05000000000000002359 ) ;
#8 = AXIS2_PLACEMENT_3D ( 'NONE', #880, #1282, #1090 ) ;
#9 = VERTEX_POINT ( 'NONE', #208 ) ;
#10 = LINE ( 'NONE', #423, #236 ) ;
#11 = VECTOR ( 'NONE', #187, 1000.000000000000000 ) ;
#12 = DIRECTION ( 'NONE',  ( 0.000000000000000000, 0.000000000000000000, 1.000000000000000000 ) ) ;
#13 = LINE ( 'NONE', #619, #989 ) ;
#14 = ORIENTED_EDGE ( 'NONE', *, *, #725, .F. ) ;
#15 = CARTESIAN_POINT ( 'NONE',  ( -0.7499999999999998890, 0.3499999999999999778, 0.3999999999999999667 ) ) ;
#16 = VERTEX_POINT ( 'NONE', #287 ) ;
#17 = FILL_AREA_STYLE_COLOUR ( '', #256 ) ;
#18 = FACE_OUTER_BOUND ( 'NONE', #653, .T. ) ;
#19 = DIRECTION ( 'NONE',  ( 0.000000000000000000, -1.000000000000000000, 0.000000000000000000 ) ) ;
#20 = ORIENTED_EDGE ( 'NONE', *, *, #461, .T. ) ;
#21 = DIRECTION ( 'NONE',  ( 1.000000000000000000, 0.000000000000000000, 0.000000000000000000 ) ) ;
#22 = FACE_BOUND ( 'NONE', #136, .T. ) ;
#23 = CYLINDRICAL_SURFACE ( 'NONE', #339, 0.05000000000000002359 ) ;
#24 = EDGE_LOOP ( 'NONE', ( #693, #118, #1314 ) ) ;
#25 = DIRECTION ( 'NONE',  ( 1.000000000000000000, 0.000000000000000000, 0.000000000000000000 ) ) ;
#26 = CIRCLE ( 'NONE', #178, 0.05000000000000002359 ) ;
#27 = CIRCLE ( 'NONE', #200, 0.05000000000000002359 ) ;
#28 = DIRECTION ( 'NONE',  ( 1.000000000000000000, -0.000000000000000000, -0.000000000000000000 ) ) ;
#29 = VECTOR ( 'NONE', #1033, 1000.000000000000000 ) ;
#30 = AXIS2_PLACEMENT_3D ( 'NONE', #120, #217, #1068 ) ;
#31 = CARTESIAN_POINT ( 'NONE',  ( 0.5000000000000000000, 0.4000000000000000222, 0.3999999999999999667 ) ) ;
#32 = AXIS2_PLACEMENT_3D ( 'NONE', #33, #341, #1056 ) ;
#33 = CARTESIAN_POINT ( 'NONE',  ( 0.5000000000000000000, 0.3800000000000000044, 0.3800000000000000044 ) ) ;
#34 = ORIENTED_EDGE ( 'NONE', *, *, #717, .T. ) ;
#35 = SURFACE_STYLE_USAGE ( .BOTH. , #362 ) ;
#36 = ORIENTED_EDGE ( 'NONE', *, *, #149, .F. ) ;
#37 = LINE ( 'NONE', #350, #216 ) ;
#38 = CARTESIAN_POINT ( 'NONE',  ( 0.7499999999999998890, -0.3499999999999999778, 0.3499999999999999223 ) ) ;
#39 = MECHANICAL_DESIGN_GEOMETRIC_PRESENTATION_REPRESENTATION (  '', ( #1140 ), #649 ) ;
#40 = VERTEX_POINT ( 'NONE', #516 ) ;
#41 = SURFACE_STYLE_FILL_AREA ( #46 ) ;
#42 = CARTESIAN_POINT ( 'NONE',  ( -0.7999999999999999334, 0.000000000000000000, 0.000000000000000000 ) ) ;
#43 = DIRECTION ( 'NONE',  ( -1.000000000000000000, 0.000000000000000000, 0.000000000000000000 ) ) ;
#44 = EDGE_CURVE ( 'NONE', #768, #480, #1237, .T. ) ;
#45 = EDGE_LOOP ( 'NONE', ( #440, #184, #881 ) ) ;
#46 = FILL_AREA_STYLE ('',( #258 ) ) ;
#47 = ORIENTED_EDGE ( 'NONE', *, *, #475, .T. ) ;
#48 = DIRECTION ( 'NONE',  ( 1.000000000000000000, 0.000000000000000000, -0.000000000000000000 ) ) ;
#49 = STYLED_ITEM ( 'NONE', ( #162 ), #940 ) ;
#50 = EDGE_CURVE ( 'NONE', #912, #106, #1037, .T. ) ;
#51 = ADVANCED_FACE ( 'NONE', ( #298 ), #1336, .T. ) ;
#52 = CARTESIAN_POINT ( 'NONE',  ( 0.7499999999999998890, -0.3499999999999999778, -0.3500000000000000333 ) ) ;
#53 = VECTOR ( 'NONE', #1211, 1000.000000000000000 ) ;
#54 = EDGE_CURVE ( 'NONE', #404, #885, #1289, .T. ) ;
#55 = VECTOR ( 'NONE', #195, 1000.000000000000000 ) ;
#56 = DIRECTION ( 'NONE',  ( 0.000000000000000000, 0.000000000000000000, -1.000000000000000000 ) ) ;
#57 = ORIENTED_EDGE ( 'NONE', *, *, #697, .T. ) ;
#58 = CIRCLE ( 'NONE', #1073, 0.05000000000000002359 ) ;
#59 = ORIENTED_EDGE ( 'NONE', *, *, #628, .T. ) ;
#60 = LINE ( 'NONE', #1065, #1232 ) ;
#61 = DIRECTION ( 'NONE',  ( -1.000000000000000000, 0.000000000000000000, 0.000000000000000000 ) ) ;
#62 = CARTESIAN_POINT ( 'NONE',  ( 0.7499999999999998890, 0.3499999999999999778, 0.3499999999999999223 ) ) ;
#63 = EDGE_CURVE ( 'NONE', #873, #1318, #279, .T. ) ;
#64 = EDGE_CURVE ( 'NONE', #349, #283, #89, .T. ) ;
#65 = CIRCLE ( 'NONE', #816, 0.05000000000000002359 ) ;
#66 = VERTEX_POINT ( 'NONE', #909 ) ;
#67 = DIRECTION ( 'NONE',  ( -0.000000000000000000, 1.000000000000000000, 0.000000000000000000 ) ) ;
#68 = AXIS2_PLACEMENT_3D ( 'NONE', #935, #21, #741 ) ;
#69 = DIRECTION ( 'NONE',  ( 0.000000000000000000, 0.000000000000000000, 1.000000000000000000 ) ) ;
#70 = EDGE_CURVE ( 'NONE', #16, #943, #1022, .T. ) ;
#71 = ORIENTED_EDGE ( 'NONE', *, *, #114, .F. ) ;
#72 = PLANE ( 'NONE',  #650 ) ;
#73 = EDGE_CURVE ( 'NONE', #1040, #349, #1323, .T. ) ;
#74 = CARTESIAN_POINT ( 'NONE',  ( 0.5000000000000000000, 0.3300000000000000155, -0.3800000000000000044 ) ) ;
#75 = CIRCLE ( 'NONE', #826, 0.05000000000000002359 ) ;
#76 = APPLICATION_PROTOCOL_DEFINITION ( 'draft international standard', 'automotive_design', 1998, #493 ) ;
#77 = CARTESIAN_POINT ( 'NONE',  ( -0.7999999999999999334, 0.3499999999999999778, -0.3500000000000000333 ) ) ;
#78 = AXIS2_PLACEMENT_3D ( 'NONE', #420, #335, #928 ) ;
#79 = DIRECTION ( 'NONE',  ( 0.000000000000000000, 1.000000000000000000, 0.000000000000000000 ) ) ;
#80 = EDGE_CURVE ( 'NONE', #455, #999, #855, .T. ) ;
#81 = CIRCLE ( 'NONE', #835, 0.05000000000000002359 ) ;
#82 = SURFACE_STYLE_FILL_AREA ( #1311 ) ;
#83 = ORIENTED_EDGE ( 'NONE', *, *, #1023, .T. ) ;
#84 = DIRECTION ( 'NONE',  ( -0.000000000000000000, 1.000000000000000000, 0.000000000000000000 ) ) ;
#85 = EDGE_LOOP ( 'NONE', ( #618, #639, #457, #730 ) ) ;
#86 = DIRECTION ( 'NONE',  ( 0.000000000000000000, 0.000000000000000000, -1.000000000000000000 ) ) ;
#87 = CARTESIAN_POINT ( 'NONE',  ( 0.7499999999999998890, 0.4000000000000000222, 0.3499999999999999223 ) ) ;
#88 = PRODUCT ( 'CGA3E3X7R1H105K080AB', 'CGA3E3X7R1H105K080AB', '', ( #1190 ) ) ;
#89 = LINE ( 'NONE', #501, #55 ) ;
#90 = SPHERICAL_SURFACE ( 'NONE', #532, 0.05000000000000000278 ) ;
#91 = ORIENTED_EDGE ( 'NONE', *, *, #293, .F. ) ;
#92 = DIRECTION ( 'NONE',  ( 0.000000000000000000, -1.000000000000000000, 0.000000000000000000 ) ) ;
#93 = ADVANCED_FACE ( 'NONE', ( #963 ), #1267, .T. ) ;
#94 = LINE ( 'NONE', #177, #1087 ) ;
#95 = PRODUCT_DEFINITION ( 'UNKNOWN', '', #422, #321 ) ;
#96 = CARTESIAN_POINT ( 'NONE',  ( 0.5000000000000000000, -0.3300000000000000155, 0.3800000000000000044 ) ) ;
#97 = AXIS2_PLACEMENT_3D ( 'NONE', #225, #719, #1234 ) ;
#98 = LINE ( 'NONE', #533, #509 ) ;
#99 = EDGE_CURVE ( 'NONE', #326, #1071, #724, .T. ) ;
#100 = PRESENTATION_LAYER_ASSIGNMENT (  '', '', ( #701 ) ) ;
#101 = VECTOR ( 'NONE', #306, 1000.000000000000000 ) ;
#102 = ORIENTED_EDGE ( 'NONE', *, *, #1107, .T. ) ;
#103 = CARTESIAN_POINT ( 'NONE',  ( -0.7499999999999998890, 0.3499999999999999778, 0.3499999999999999223 ) ) ;
#104 = FACE_OUTER_BOUND ( 'NONE', #1292, .T. ) ;
#105 = UNCERTAINTY_MEASURE_WITH_UNIT (LENGTH_MEASURE( 1.000000000000000082E-05 ), #1112, 'distance_accuracy_value', 'NONE');
#106 = VERTEX_POINT ( 'NONE', #235 ) ;
#107 = PLANE ( 'NONE',  #964 ) ;
#108 = VERTEX_POINT ( 'NONE', #852 ) ;
#109 = EDGE_CURVE ( 'NONE', #392, #1227, #831, .T. ) ;
#110 = FACE_OUTER_BOUND ( 'NONE', #317, .T. ) ;
#111 = DIRECTION ( 'NONE',  ( 0.000000000000000000, 0.000000000000000000, 1.000000000000000000 ) ) ;
#112 = DIRECTION ( 'NONE',  ( -1.000000000000000000, 0.000000000000000000, 0.000000000000000000 ) ) ;
#113 = AXIS2_PLACEMENT_3D ( 'NONE', #277, #185, #919 ) ;
#114 = EDGE_CURVE ( 'NONE', #1026, #494, #1262, .T. ) ;
#115 = VERTEX_POINT ( 'NONE', #330 ) ;
#116 = LINE ( 'NONE', #1059, #490 ) ;
#117 = EDGE_CURVE ( 'NONE', #768, #221, #1303, .T. ) ;
#118 = ORIENTED_EDGE ( 'NONE', *, *, #1199, .T. ) ;
#119 = CARTESIAN_POINT ( 'NONE',  ( -0.7499999999999998890, 0.4000000000000000222, 0.3999999999999999667 ) ) ;
#120 = CARTESIAN_POINT ( 'NONE',  ( -0.7499999999999998890, -0.3499999999999999778, -0.3500000000000000333 ) ) ;
#121 = DIRECTION ( 'NONE',  ( 0.000000000000000000, -0.000000000000000000, -1.000000000000000000 ) ) ;
#122 = ORIENTED_EDGE ( 'NONE', *, *, #996, .F. ) ;
#123 = FACE_OUTER_BOUND ( 'NONE', #1194, .T. ) ;
#124 = ORIENTED_EDGE ( 'NONE', *, *, #400, .T. ) ;
#125 = DIRECTION ( 'NONE',  ( 0.000000000000000000, 0.000000000000000000, -1.000000000000000000 ) ) ;
#126 = DIRECTION ( 'NONE',  ( 1.000000000000000000, 0.000000000000000000, 0.000000000000000000 ) ) ;
#127 = EDGE_CURVE ( 'NONE', #40, #660, #1030, .T. ) ;
#128 =( GEOMETRIC_REPRESENTATION_CONTEXT ( 3 ) GLOBAL_UNCERTAINTY_ASSIGNED_CONTEXT ( ( #305 ) ) GLOBAL_UNIT_ASSIGNED_CONTEXT ( ( #1179, #862, #854 ) ) REPRESENTATION_CONTEXT ( 'NONE', 'WORKASPACE' ) );
#129 = ORIENTED_EDGE ( 'NONE', *, *, #975, .F. ) ;
#130 = CARTESIAN_POINT ( 'NONE',  ( -0.7999999999999999334, -0.3499999999999999778, 0.3999999999999999667 ) ) ;
#131 = VERTEX_POINT ( 'NONE', #932 ) ;
#132 = FACE_OUTER_BOUND ( 'NONE', #244, .T. ) ;
#133 = SURFACE_STYLE_FILL_AREA ( #228 ) ;
#134 = AXIS2_PLACEMENT_3D ( 'NONE', #207, #138, #549 ) ;
#135 = FILL_AREA_STYLE ('',( #645 ) ) ;
#136 = EDGE_LOOP ( 'NONE', ( #1276, #534, #1145, #253, #889, #843, #36, #748 ) ) ;
#137 = LINE ( 'NONE', #1044, #1238 ) ;
#138 = DIRECTION ( 'NONE',  ( -0.000000000000000000, 1.000000000000000000, 0.000000000000000000 ) ) ;
#139 = EDGE_CURVE ( 'NONE', #1264, #822, #1164, .T. ) ;
#140 = DIRECTION ( 'NONE',  ( -1.000000000000000000, -0.000000000000000000, -0.000000000000000000 ) ) ;
#141 = DIRECTION ( 'NONE',  ( 1.000000000000000000, -0.000000000000000000, -0.000000000000000000 ) ) ;
#142 = ORIENTED_EDGE ( 'NONE', *, *, #821, .T. ) ;
#143 = AXIS2_PLACEMENT_3D ( 'NONE', #1005, #504, #197 ) ;
#144 = MECHANICAL_DESIGN_GEOMETRIC_PRESENTATION_REPRESENTATION (  '', ( #701 ), #1191 ) ;
#145 = AXIS2_PLACEMENT_3D ( 'NONE', #627, #941, #1055 ) ;
#146 = DIRECTION ( 'NONE',  ( 0.000000000000000000, 0.000000000000000000, 1.000000000000000000 ) ) ;
#147 = EDGE_LOOP ( 'NONE', ( #436, #354, #233, #569 ) ) ;
#148 = DIRECTION ( 'NONE',  ( 0.000000000000000000, 0.000000000000000000, -1.000000000000000000 ) ) ;
#149 = EDGE_CURVE ( 'NONE', #455, #392, #424, .T. ) ;
#150 = ORIENTED_EDGE ( 'NONE', *, *, #808, .F. ) ;
#151 = CARTESIAN_POINT ( 'NONE',  ( 0.7999999999999999334, 0.4000000000000000222, 0.3499999999999999223 ) ) ;
#152 = DIRECTION ( 'NONE',  ( 0.000000000000000000, 0.000000000000000000, -1.000000000000000000 ) ) ;
#153 = FACE_OUTER_BOUND ( 'NONE', #563, .T. ) ;
#154 = ORIENTED_EDGE ( 'NONE', *, *, #156, .F. ) ;
#155 =( NAMED_UNIT ( * ) SI_UNIT ( $, .STERADIAN. ) SOLID_ANGLE_UNIT ( ) );
#156 = EDGE_CURVE ( 'NONE', #593, #858, #1157, .T. ) ;
#157 = ADVANCED_FACE ( 'NONE', ( #18 ), #529, .T. ) ;
#158 = EDGE_LOOP ( 'NONE', ( #180, #1169, #129, #878 ) ) ;
#159 = FACE_OUTER_BOUND ( 'NONE', #45, .T. ) ;
#160 = CARTESIAN_POINT ( 'NONE',  ( -0.7499999999999998890, 0.3499999999999999778, 0.3499999999999999223 ) ) ;
#161 = DIRECTION ( 'NONE',  ( -0.000000000000000000, -1.000000000000000000, -0.000000000000000000 ) ) ;
#162 = PRESENTATION_STYLE_ASSIGNMENT (( #35 ) ) ;
#163 = LINE ( 'NONE', #151, #453 ) ;
#164 = DIRECTION ( 'NONE',  ( 0.000000000000000000, 0.000000000000000000, 1.000000000000000000 ) ) ;
#165 = AXIS2_PLACEMENT_3D ( 'NONE', #252, #1291, #668 ) ;
#166 = DIRECTION ( 'NONE',  ( -1.000000000000000000, -0.000000000000000000, 0.000000000000000000 ) ) ;
#167 =( LENGTH_UNIT ( ) NAMED_UNIT ( * ) SI_UNIT ( .MILLI., .METRE. ) );
#168 = LINE ( 'NONE', #874, #275 ) ;
#169 = DIRECTION ( 'NONE',  ( 0.000000000000000000, 0.000000000000000000, 1.000000000000000000 ) ) ;
#170 = PRESENTATION_LAYER_ASSIGNMENT (  '', '', ( #1140 ) ) ;
#171 = ORIENTED_EDGE ( 'NONE', *, *, #820, .F. ) ;
#172 = DIRECTION ( 'NONE',  ( 0.000000000000000000, 0.000000000000000000, -1.000000000000000000 ) ) ;
#173 = FACE_OUTER_BOUND ( 'NONE', #497, .T. ) ;
#174 = CARTESIAN_POINT ( 'NONE',  ( 0.5000000000000000000, 0.3300000000000000155, 0.3300000000000000155 ) ) ;
#175 = ORIENTED_EDGE ( 'NONE', *, *, #390, .F. ) ;
#176 = DIRECTION ( 'NONE',  ( 0.000000000000000000, 0.000000000000000000, 1.000000000000000000 ) ) ;
#177 = CARTESIAN_POINT ( 'NONE',  ( 0.5000000000000000000, 0.3800000000000000044, -0.3300000000000000155 ) ) ;
#178 = AXIS2_PLACEMENT_3D ( 'NONE', #312, #500, #1009 ) ;
#179 = AXIS2_PLACEMENT_3D ( 'NONE', #566, #1162, #762 ) ;
#180 = ORIENTED_EDGE ( 'NONE', *, *, #386, .T. ) ;
#181 = CARTESIAN_POINT ( 'NONE',  ( 0.5000000000000000000, -0.3800000000000000044, -0.3300000000000000155 ) ) ;
#182 = MECHANICAL_DESIGN_GEOMETRIC_PRESENTATION_REPRESENTATION (  '', ( #1109 ), #1028 ) ;
#183 = FACE_OUTER_BOUND ( 'NONE', #399, .T. ) ;
#184 = ORIENTED_EDGE ( 'NONE', *, *, #711, .T. ) ;
#185 = DIRECTION ( 'NONE',  ( -0.000000000000000000, -1.000000000000000000, -0.000000000000000000 ) ) ;
#186 = ADVANCED_FACE ( 'NONE', ( #414, #22 ), #839, .T. ) ;
#187 = DIRECTION ( 'NONE',  ( 0.000000000000000000, 0.000000000000000000, -1.000000000000000000 ) ) ;
#188 = CARTESIAN_POINT ( 'NONE',  ( -0.7999999999999999334, 0.4000000000000000222, -0.3500000000000000333 ) ) ;
#189 = EDGE_CURVE ( 'NONE', #822, #1136, #1246, .T. ) ;
#190 = ORIENTED_EDGE ( 'NONE', *, *, #1287, .F. ) ;
#191 = LINE ( 'NONE', #377, #997 ) ;
#192 = ADVANCED_FACE ( 'NONE', ( #1150 ), #634, .T. ) ;
#193 = LINE ( 'NONE', #74, #936 ) ;
#194 = UNCERTAINTY_MEASURE_WITH_UNIT (LENGTH_MEASURE( 1.000000000000000082E-05 ), #348, 'distance_accuracy_value', 'NONE');
#195 = DIRECTION ( 'NONE',  ( -0.000000000000000000, -0.000000000000000000, -1.000000000000000000 ) ) ;
#196 = ORIENTED_EDGE ( 'NONE', *, *, #1222, .F. ) ;
#197 = DIRECTION ( 'NONE',  ( -1.000000000000000000, 0.000000000000000000, 0.000000000000000000 ) ) ;
#198 = DIRECTION ( 'NONE',  ( -1.000000000000000000, 0.000000000000000000, 0.000000000000000000 ) ) ;
#199 = ORIENTED_EDGE ( 'NONE', *, *, #853, .T. ) ;
#200 = AXIS2_PLACEMENT_3D ( 'NONE', #499, #384, #1220 ) ;
#201 = DIRECTION ( 'NONE',  ( -1.000000000000000000, -0.000000000000000000, -0.000000000000000000 ) ) ;
#202 = STYLED_ITEM ( 'NONE', ( #378 ), #209 ) ;
#203 = ORIENTED_EDGE ( 'NONE', *, *, #574, .T. ) ;
#204 = CARTESIAN_POINT ( 'NONE',  ( 0.7499999999999998890, -0.3499999999999999778, 0.3499999999999999223 ) ) ;
#205 = ORIENTED_EDGE ( 'NONE', *, *, #400, .F. ) ;
#206 = VECTOR ( 'NONE', #141, 1000.000000000000000 ) ;
#207 = CARTESIAN_POINT ( 'NONE',  ( 0.7999999999999999334, -0.4000000000000000222, 0.3999999999999999667 ) ) ;
#208 = CARTESIAN_POINT ( 'NONE',  ( -0.7499999999999998890, 0.4000000000000000222, 0.3499999999999999223 ) ) ;
#209 = ADVANCED_FACE ( 'NONE', ( #223 ), #644, .T. ) ;
#210 = LINE ( 'NONE', #1139, #1176 ) ;
#211 = ORIENTED_EDGE ( 'NONE', *, *, #54, .F. ) ;
#212 = FACE_OUTER_BOUND ( 'NONE', #1, .T. ) ;
#213 = APPLICATION_CONTEXT ( 'automotive_design' ) ;
#214 = ORIENTED_EDGE ( 'NONE', *, *, #2, .T. ) ;
#215 = CARTESIAN_POINT ( 'NONE',  ( -0.5000000000000000000, 0.3800000000000000044, -0.3300000000000000155 ) ) ;
#216 = VECTOR ( 'NONE', #866, 1000.000000000000000 ) ;
#217 = DIRECTION ( 'NONE',  ( 0.000000000000000000, 1.000000000000000000, 0.000000000000000000 ) ) ;
#218 = LINE ( 'NONE', #426, #1088 ) ;
#219 = ORIENTED_EDGE ( 'NONE', *, *, #345, .F. ) ;
#220 = FACE_OUTER_BOUND ( 'NONE', #251, .T. ) ;
#221 = VERTEX_POINT ( 'NONE', #267 ) ;
#222 = CARTESIAN_POINT ( 'NONE',  ( -0.7499999999999998890, -0.4000000000000000222, -0.3500000000000000333 ) ) ;
#223 = FACE_OUTER_BOUND ( 'NONE', #583, .T. ) ;
#224 = ORIENTED_EDGE ( 'NONE', *, *, #127, .T. ) ;
#225 = CARTESIAN_POINT ( 'NONE',  ( 0.7999999999999999334, -0.3499999999999999778, 0.3499999999999999223 ) ) ;
#226 = COLOUR_RGB ( '',0.6352941176470587870, 0.2862745098039215508, 0.000000000000000000 ) ;
#227 = DIRECTION ( 'NONE',  ( 1.000000000000000000, 0.000000000000000000, -0.000000000000000000 ) ) ;
#228 = FILL_AREA_STYLE ('',( #844 ) ) ;
#229 = MECHANICAL_DESIGN_GEOMETRIC_PRESENTATION_REPRESENTATION (  '', ( #809 ), #128 ) ;
#230 = CARTESIAN_POINT ( 'NONE',  ( 0.5000000000000000000, 0.3800000000000000044, 0.3800000000000000044 ) ) ;
#231 = ORIENTED_EDGE ( 'NONE', *, *, #109, .F. ) ;
#232 = DIRECTION ( 'NONE',  ( 0.000000000000000000, 0.000000000000000000, 1.000000000000000000 ) ) ;
#233 = ORIENTED_EDGE ( 'NONE', *, *, #953, .F. ) ;
#234 = DIRECTION ( 'NONE',  ( 0.000000000000000000, 0.000000000000000000, -1.000000000000000000 ) ) ;
#235 = CARTESIAN_POINT ( 'NONE',  ( 0.7999999999999999334, -0.3499999999999999778, -0.3500000000000000333 ) ) ;
#236 = VECTOR ( 'NONE', #633, 1000.000000000000000 ) ;
#237 = CARTESIAN_POINT ( 'NONE',  ( -0.7999999999999999334, -0.4000000000000000222, -0.3500000000000000333 ) ) ;
#238 = ORIENTED_EDGE ( 'NONE', *, *, #127, .F. ) ;
#239 = ORIENTED_EDGE ( 'NONE', *, *, #250, .F. ) ;
#240 = DIRECTION ( 'NONE',  ( 1.000000000000000000, 0.000000000000000000, 0.000000000000000000 ) ) ;
#241 = DIRECTION ( 'NONE',  ( 1.000000000000000000, -0.000000000000000000, -0.000000000000000000 ) ) ;
#242 = DIRECTION ( 'NONE',  ( -0.000000000000000000, -0.000000000000000000, 1.000000000000000000 ) ) ;
#243 = EDGE_CURVE ( 'NONE', #221, #1126, #1274, .T. ) ;
#244 = EDGE_LOOP ( 'NONE', ( #1328, #47, #915, #993 ) ) ;
#245 = COLOUR_RGB ( '',0.6352941176470587870, 0.2862745098039215508, 0.000000000000000000 ) ;
#246 = CARTESIAN_POINT ( 'NONE',  ( -0.5000000000000000000, 0.4000000000000000222, 0.3499999999999999223 ) ) ;
#247 = VECTOR ( 'NONE', #1218, 1000.000000000000000 ) ;
#248 =( NAMED_UNIT ( * ) SI_UNIT ( $, .STERADIAN. ) SOLID_ANGLE_UNIT ( ) );
#249 = ADVANCED_FACE ( 'NONE', ( #1080 ), #1086, .T. ) ;
#250 = EDGE_CURVE ( 'NONE', #593, #66, #720, .T. ) ;
#251 = EDGE_LOOP ( 'NONE', ( #472, #1104, #976, #1004 ) ) ;
#252 = CARTESIAN_POINT ( 'NONE',  ( -0.7499999999999998890, -0.3499999999999999778, 0.3499999999999999223 ) ) ;
#253 = ORIENTED_EDGE ( 'NONE', *, *, #450, .T. ) ;
#254 =( LENGTH_UNIT ( ) NAMED_UNIT ( * ) SI_UNIT ( .MILLI., .METRE. ) );
#255 = DIRECTION ( 'NONE',  ( 1.000000000000000000, -0.000000000000000000, -0.000000000000000000 ) ) ;
#256 = COLOUR_RGB ( '',0.6352941176470587870, 0.2862745098039215508, 0.000000000000000000 ) ;
#257 = VERTEX_POINT ( 'NONE', #979 ) ;
#258 = FILL_AREA_STYLE_COLOUR ( '', #226 ) ;
#259 = ORIENTED_EDGE ( 'NONE', *, *, #291, .T. ) ;
#260 = DIRECTION ( 'NONE',  ( 0.000000000000000000, 0.000000000000000000, 1.000000000000000000 ) ) ;
#261 = DIRECTION ( 'NONE',  ( -1.000000000000000000, 0.000000000000000000, 0.000000000000000000 ) ) ;
#262 = CYLINDRICAL_SURFACE ( 'NONE', #491, 0.05000000000000002359 ) ;
#263 = FACE_OUTER_BOUND ( 'NONE', #836, .T. ) ;
#264 = AXIS2_PLACEMENT_3D ( 'NONE', #665, #1075, #152 ) ;
#265 = CIRCLE ( 'NONE', #439, 0.05000000000000002359 ) ;
#266 = LINE ( 'NONE', #560, #1002 ) ;
#267 = CARTESIAN_POINT ( 'NONE',  ( -0.7999999999999999334, -0.3499999999999999778, -0.3500000000000000333 ) ) ;
#268 = AXIS2_PLACEMENT_3D ( 'NONE', #1118, #112, #523 ) ;
#269 = SURFACE_STYLE_FILL_AREA ( #992 ) ;
#270 = EDGE_LOOP ( 'NONE', ( #903, #1120, #705, #930, #142, #224, #1281, #518 ) ) ;
#271 = LINE ( 'NONE', #394, #962 ) ;
#272 = DIRECTION ( 'NONE',  ( 0.000000000000000000, 0.000000000000000000, 1.000000000000000000 ) ) ;
#273 = EDGE_CURVE ( 'NONE', #1136, #746, #568, .T. ) ;
#274 =( LENGTH_UNIT ( ) NAMED_UNIT ( * ) SI_UNIT ( .MILLI., .METRE. ) );
#275 = VECTOR ( 'NONE', #781, 1000.000000000000000 ) ;
#276 = ORIENTED_EDGE ( 'NONE', *, *, #551, .T. ) ;
#277 = CARTESIAN_POINT ( 'NONE',  ( 0.7499999999999998890, 0.3499999999999999778, 0.3499999999999999223 ) ) ;
#278 =( NAMED_UNIT ( * ) SI_UNIT ( $, .STERADIAN. ) SOLID_ANGLE_UNIT ( ) );
#279 = LINE ( 'NONE', #1017, #101 ) ;
#280 = DIRECTION ( 'NONE',  ( 1.000000000000000000, 0.000000000000000000, 0.000000000000000000 ) ) ;
#281 = DIRECTION ( 'NONE',  ( 0.000000000000000000, 0.000000000000000000, -1.000000000000000000 ) ) ;
#282 = EDGE_CURVE ( 'NONE', #943, #945, #530, .T. ) ;
#283 = VERTEX_POINT ( 'NONE', #575 ) ;
#284 = FACE_OUTER_BOUND ( 'NONE', #983, .T. ) ;
#285 = DIRECTION ( 'NONE',  ( 0.000000000000000000, -1.000000000000000000, 0.000000000000000000 ) ) ;
#286 = AXIS2_PLACEMENT_3D ( 'NONE', #451, #67, #1182 ) ;
#287 = CARTESIAN_POINT ( 'NONE',  ( -0.5000000000000000000, -0.3300000000000000155, 0.3800000000000000044 ) ) ;
#288 =( NAMED_UNIT ( * ) SI_UNIT ( $, .STERADIAN. ) SOLID_ANGLE_UNIT ( ) );
#289 = VECTOR ( 'NONE', #84, 1000.000000000000000 ) ;
#290 = ADVANCED_FACE ( 'NONE', ( #556 ), #1294, .F. ) ;
#291 = EDGE_CURVE ( 'NONE', #794, #9, #1319, .T. ) ;
#292 = DIRECTION ( 'NONE',  ( 0.000000000000000000, 0.000000000000000000, -1.000000000000000000 ) ) ;
#293 = EDGE_CURVE ( 'NONE', #632, #393, #683, .T. ) ;
#294 = ORIENTED_EDGE ( 'NONE', *, *, #725, .T. ) ;
#295 = CARTESIAN_POINT ( 'NONE',  ( 0.5000000000000000000, 0.3800000000000000044, -0.3300000000000000155 ) ) ;
#296 = AXIS2_PLACEMENT_3D ( 'NONE', #980, #774, #56 ) ;
#297 = CARTESIAN_POINT ( 'NONE',  ( -0.5000000000000000000, 0.3300000000000000155, 0.3800000000000000044 ) ) ;
#298 = FACE_OUTER_BOUND ( 'NONE', #957, .T. ) ;
#299 = LINE ( 'NONE', #398, #289 ) ;
#300 = ORIENTED_EDGE ( 'NONE', *, *, #676, .T. ) ;
#301 = CYLINDRICAL_SURFACE ( 'NONE', #1099, 0.05000000000000002359 ) ;
#302 = AXIS2_PLACEMENT_3D ( 'NONE', #952, #338, #437 ) ;
#303 = DIRECTION ( 'NONE',  ( 0.000000000000000000, 0.000000000000000000, 1.000000000000000000 ) ) ;
#304 = ADVANCED_FACE ( 'NONE', ( #772 ), #1178, .T. ) ;
#305 = UNCERTAINTY_MEASURE_WITH_UNIT (LENGTH_MEASURE( 1.000000000000000082E-05 ), #1179, 'distance_accuracy_value', 'NONE');
#306 = DIRECTION ( 'NONE',  ( 1.000000000000000000, 0.000000000000000000, -0.000000000000000000 ) ) ;
#307 = FILL_AREA_STYLE ('',( #1038 ) ) ;
#308 = ORIENTED_EDGE ( 'NONE', *, *, #1286, .T. ) ;
#309 = CARTESIAN_POINT ( 'NONE',  ( 0.5000000000000000000, -0.3499999999999999778, 0.3999999999999999667 ) ) ;
#310 = VERTEX_POINT ( 'NONE', #1285 ) ;
#311 = EDGE_CURVE ( 'NONE', #1051, #310, #483, .T. ) ;
#312 = CARTESIAN_POINT ( 'NONE',  ( -0.7499999999999998890, -0.3499999999999999778, 0.3499999999999999223 ) ) ;
#313 = ORIENTED_EDGE ( 'NONE', *, *, #1273, .T. ) ;
#314 = CIRCLE ( 'NONE', #1067, 0.05000000000000002359 ) ;
#315 = DIRECTION ( 'NONE',  ( 0.000000000000000000, -0.000000000000000000, -1.000000000000000000 ) ) ;
#316 =( GEOMETRIC_REPRESENTATION_CONTEXT ( 3 ) GLOBAL_UNCERTAINTY_ASSIGNED_CONTEXT ( ( #507 ) ) GLOBAL_UNIT_ASSIGNED_CONTEXT ( ( #561, #688, #248 ) ) REPRESENTATION_CONTEXT ( 'NONE', 'WORKASPACE' ) );
#317 = EDGE_LOOP ( 'NONE', ( #219, #319, #949, #863 ) ) ;
#318 = AXIS2_PLACEMENT_3D ( 'NONE', #1339, #747, #324 ) ;
#319 = ORIENTED_EDGE ( 'NONE', *, *, #1249, .F. ) ;
#320 = SPHERICAL_SURFACE ( 'NONE', #302, 0.05000000000000000278 ) ;
#321 = PRODUCT_DEFINITION_CONTEXT ( 'detailed design', #493, 'design' ) ;
#322 = CARTESIAN_POINT ( 'NONE',  ( -0.7999999999999999334, 0.3499999999999999778, 0.3499999999999999223 ) ) ;
#323 = VERTEX_POINT ( 'NONE', #777 ) ;
#324 = DIRECTION ( 'NONE',  ( 1.000000000000000000, 0.000000000000000000, 0.000000000000000000 ) ) ;
#325 = CARTESIAN_POINT ( 'NONE',  ( -0.5000000000000000000, 0.3300000000000000155, -0.3300000000000000155 ) ) ;
#326 = VERTEX_POINT ( 'NONE', #985 ) ;
#327 = PLANE ( 'NONE',  #1008 ) ;
#328 = ORIENTED_EDGE ( 'NONE', *, *, #975, .T. ) ;
#329 =( NAMED_UNIT ( * ) SI_UNIT ( $, .STERADIAN. ) SOLID_ANGLE_UNIT ( ) );
#330 = CARTESIAN_POINT ( 'NONE',  ( 0.5000000000000000000, -0.3300000000000000155, -0.3800000000000000044 ) ) ;
#331 = AXIS2_PLACEMENT_3D ( 'NONE', #1326, #722, #905 ) ;
#332 = CARTESIAN_POINT ( 'NONE',  ( -0.7999999999999999334, 0.3499999999999999778, 0.3999999999999999667 ) ) ;
#333 = EDGE_CURVE ( 'NONE', #1026, #106, #75, .T. ) ;
#334 = EDGE_LOOP ( 'NONE', ( #396, #71, #721, #1180 ) ) ;
#335 = DIRECTION ( 'NONE',  ( 1.000000000000000000, 0.000000000000000000, 0.000000000000000000 ) ) ;
#336 = VECTOR ( 'NONE', #281, 1000.000000000000000 ) ;
#337 = ORIENTED_EDGE ( 'NONE', *, *, #1214, .T. ) ;
#338 = DIRECTION ( 'NONE',  ( 0.000000000000000000, 1.000000000000000000, 0.000000000000000000 ) ) ;
#339 = AXIS2_PLACEMENT_3D ( 'NONE', #765, #673, #1173 ) ;
#340 = DIRECTION ( 'NONE',  ( 1.000000000000000000, 0.000000000000000000, 0.000000000000000000 ) ) ;
#341 = DIRECTION ( 'NONE',  ( 0.000000000000000000, -1.000000000000000000, 0.000000000000000000 ) ) ;
#342 = EDGE_LOOP ( 'NONE', ( #14, #674, #1224, #59 ) ) ;
#343 = LINE ( 'NONE', #119, #520 ) ;
#344 = DIRECTION ( 'NONE',  ( -0.000000000000000000, -0.000000000000000000, 1.000000000000000000 ) ) ;
#345 = EDGE_CURVE ( 'NONE', #376, #885, #356, .T. ) ;
#346 = DIRECTION ( 'NONE',  ( 0.000000000000000000, 0.000000000000000000, -1.000000000000000000 ) ) ;
#347 = ORIENTED_EDGE ( 'NONE', *, *, #1286, .F. ) ;
#348 =( LENGTH_UNIT ( ) NAMED_UNIT ( * ) SI_UNIT ( .MILLI., .METRE. ) );
#349 = VERTEX_POINT ( 'NONE', #87 ) ;
#350 = CARTESIAN_POINT ( 'NONE',  ( -0.7499999999999998890, -0.4000000000000000222, 0.3999999999999999667 ) ) ;
#351 = ADVANCED_FACE ( 'NONE', ( #173 ), #1016, .F. ) ;
#352 = CARTESIAN_POINT ( 'NONE',  ( -0.7999999999999999334, -0.3499999999999999778, 0.3999999999999999667 ) ) ;
#353 = CARTESIAN_POINT ( 'NONE',  ( 0.5000000000000000000, -0.3800000000000000044, 0.3800000000000000044 ) ) ;
#354 = ORIENTED_EDGE ( 'NONE', *, *, #629, .F. ) ;
#355 = CARTESIAN_POINT ( 'NONE',  ( -0.7999999999999999334, -0.4000000000000000222, 0.3999999999999999667 ) ) ;
#356 = CIRCLE ( 'NONE', #850, 0.05000000000000002359 ) ;
#357 = STYLED_ITEM ( 'NONE', ( #1074 ), #605 ) ;
#358 = ORIENTED_EDGE ( 'NONE', *, *, #1014, .T. ) ;
#359 = FACE_OUTER_BOUND ( 'NONE', #1233, .T. ) ;
#360 = DIRECTION ( 'NONE',  ( -1.000000000000000000, 0.000000000000000000, 0.000000000000000000 ) ) ;
#361 = EDGE_LOOP ( 'NONE', ( #383, #846, #699, #463 ) ) ;
#362 = SURFACE_SIDE_STYLE ('',( #872 ) ) ;
#363 = ORIENTED_EDGE ( 'NONE', *, *, #461, .F. ) ;
#364 = FILL_AREA_STYLE ('',( #1177 ) ) ;
#365 = DIRECTION ( 'NONE',  ( -1.000000000000000000, 0.000000000000000000, 0.000000000000000000 ) ) ;
#366 = CARTESIAN_POINT ( 'NONE',  ( 0.7499999999999998890, -0.3499999999999999778, 0.3999999999999999667 ) ) ;
#367 = CIRCLE ( 'NONE', #429, 0.05000000000000002359 ) ;
#368 = CARTESIAN_POINT ( 'NONE',  ( 0.5000000000000000000, -0.4000000000000000222, 0.3999999999999999667 ) ) ;
#369 = FILL_AREA_STYLE ('',( #661 ) ) ;
#370 = EDGE_LOOP ( 'NONE', ( #1296, #1256, #1230, #448 ) ) ;
#371 = CARTESIAN_POINT ( 'NONE',  ( -0.7999999999999999334, -0.4000000000000000222, 0.3499999999999999223 ) ) ;
#372 = EDGE_CURVE ( 'NONE', #1264, #283, #763, .T. ) ;
#373 = DIRECTION ( 'NONE',  ( 0.000000000000000000, 0.000000000000000000, 1.000000000000000000 ) ) ;
#374 = EDGE_CURVE ( 'NONE', #257, #404, #798, .T. ) ;
#375 = CARTESIAN_POINT ( 'NONE',  ( 0.7499999999999998890, -0.4000000000000000222, -0.3500000000000000333 ) ) ;
#376 = VERTEX_POINT ( 'NONE', #1216 ) ;
#377 = CARTESIAN_POINT ( 'NONE',  ( -0.7999999999999999334, 0.4000000000000000222, 0.3499999999999999223 ) ) ;
#378 = PRESENTATION_STYLE_ASSIGNMENT (( #1300 ) ) ;
#379 = VECTOR ( 'NONE', #1206, 1000.000000000000000 ) ;
#380 = PRESENTATION_LAYER_ASSIGNMENT (  '', '', ( #202 ) ) ;
#381 = CARTESIAN_POINT ( 'NONE',  ( 0.000000000000000000, 0.000000000000000000, 0.000000000000000000 ) ) ;
#382 = CYLINDRICAL_SURFACE ( 'NONE', #610, 0.05000000000000002359 ) ;
#383 = ORIENTED_EDGE ( 'NONE', *, *, #629, .T. ) ;
#384 = DIRECTION ( 'NONE',  ( 1.000000000000000000, 0.000000000000000000, 0.000000000000000000 ) ) ;
#385 = CARTESIAN_POINT ( 'NONE',  ( -0.5000000000000000000, -0.3300000000000000155, -0.3300000000000000155 ) ) ;
#386 = EDGE_CURVE ( 'NONE', #1126, #788, #26, .T. ) ;
#387 = CARTESIAN_POINT ( 'NONE',  ( -0.5000000000000000000, -0.4000000000000000222, 0.3999999999999999667 ) ) ;
#388 = EDGE_LOOP ( 'NONE', ( #865, #824, #1160, #1134 ) ) ;
#389 = PRESENTATION_STYLE_ASSIGNMENT (( #707 ) ) ;
#390 = EDGE_CURVE ( 'NONE', #822, #106, #911, .T. ) ;
#391 = EDGE_CURVE ( 'NONE', #999, #40, #193, .T. ) ;
#392 = VERTEX_POINT ( 'NONE', #1103 ) ;
#393 = VERTEX_POINT ( 'NONE', #297 ) ;
#394 = CARTESIAN_POINT ( 'NONE',  ( -0.5000000000000000000, -0.3800000000000000044, 0.3800000000000000044 ) ) ;
#395 = DIRECTION ( 'NONE',  ( 1.000000000000000000, -0.000000000000000000, 0.000000000000000000 ) ) ;
#396 = ORIENTED_EDGE ( 'NONE', *, *, #536, .T. ) ;
#397 = COLOUR_RGB ( '',0.6352941176470587870, 0.2862745098039215508, 0.000000000000000000 ) ;
#398 = CARTESIAN_POINT ( 'NONE',  ( -0.7499999999999998890, 0.4000000000000000222, -0.4000000000000000777 ) ) ;
#399 = EDGE_LOOP ( 'NONE', ( #609, #408, #1110 ) ) ;
#400 = EDGE_CURVE ( 'NONE', #660, #455, #94, .T. ) ;
#401 = CYLINDRICAL_SURFACE ( 'NONE', #978, 0.05000000000000002359 ) ;
#402 = ORIENTED_EDGE ( 'NONE', *, *, #391, .F. ) ;
#403 = FACE_OUTER_BOUND ( 'NONE', #342, .T. ) ;
#404 = VERTEX_POINT ( 'NONE', #914 ) ;
#405 = DIRECTION ( 'NONE',  ( 0.000000000000000000, 0.000000000000000000, 1.000000000000000000 ) ) ;
#406 = DIRECTION ( 'NONE',  ( 1.000000000000000000, -0.000000000000000000, -0.000000000000000000 ) ) ;
#407 = UNCERTAINTY_MEASURE_WITH_UNIT (LENGTH_MEASURE( 1.000000000000000082E-05 ), #1241, 'distance_accuracy_value', 'NONE');
#408 = ORIENTED_EDGE ( 'NONE', *, *, #820, .T. ) ;
#409 = FACE_OUTER_BOUND ( 'NONE', #624, .T. ) ;
#410 = EDGE_LOOP ( 'NONE', ( #682, #1229, #1012, #203 ) ) ;
#411 = CARTESIAN_POINT ( 'NONE',  ( -0.7499999999999998890, -0.4000000000000000222, 0.3499999999999999223 ) ) ;
#412 = ADVANCED_FACE ( 'NONE', ( #1029 ), #401, .T. ) ;
#413 = DIRECTION ( 'NONE',  ( 0.000000000000000000, 0.000000000000000000, 1.000000000000000000 ) ) ;
#414 = FACE_OUTER_BOUND ( 'NONE', #503, .T. ) ;
#415 = PRESENTATION_LAYER_ASSIGNMENT (  '', '', ( #680 ) ) ;
#416 = VECTOR ( 'NONE', #1187, 1000.000000000000000 ) ;
#417 = SURFACE_STYLE_USAGE ( .BOTH. , #1250 ) ;
#418 = VECTOR ( 'NONE', #679, 1000.000000000000000 ) ;
#419 = ORIENTED_EDGE ( 'NONE', *, *, #766, .F. ) ;
#420 = CARTESIAN_POINT ( 'NONE',  ( -0.7999999999999999334, -0.3499999999999999778, -0.3500000000000000333 ) ) ;
#421 = ORIENTED_EDGE ( 'NONE', *, *, #1247, .T. ) ;
#422 = PRODUCT_DEFINITION_FORMATION_WITH_SPECIFIED_SOURCE ( 'ANY', '', #88, .NOT_KNOWN. ) ;
#423 = CARTESIAN_POINT ( 'NONE',  ( 0.7999999999999999334, 0.3499999999999999778, 0.000000000000000000 ) ) ;
#424 = LINE ( 'NONE', #732, #1192 ) ;
#425 = ADVANCED_FACE ( 'NONE', ( #1221 ), #715, .T. ) ;
#426 = CARTESIAN_POINT ( 'NONE',  ( -0.7999999999999999334, -0.3499999999999999778, -0.4000000000000000777 ) ) ;
#427 = ORIENTED_EDGE ( 'NONE', *, *, #1247, .F. ) ;
#428 = FACE_OUTER_BOUND ( 'NONE', #1284, .T. ) ;
#429 = AXIS2_PLACEMENT_3D ( 'NONE', #1143, #648, #538 ) ;
#430 = DIRECTION ( 'NONE',  ( 0.000000000000000000, 0.000000000000000000, -1.000000000000000000 ) ) ;
#431 = ADVANCED_FACE ( 'NONE', ( #104 ), #819, .F. ) ;
#432 = DIRECTION ( 'NONE',  ( -1.000000000000000000, 0.000000000000000000, -0.000000000000000000 ) ) ;
#433 = EDGE_CURVE ( 'NONE', #464, #873, #1335, .T. ) ;
#434 = ORIENTED_EDGE ( 'NONE', *, *, #64, .F. ) ;
#435 = FACE_OUTER_BOUND ( 'NONE', #780, .T. ) ;
#436 = ORIENTED_EDGE ( 'NONE', *, *, #1298, .F. ) ;
#437 = DIRECTION ( 'NONE',  ( -1.000000000000000000, 0.000000000000000000, 0.000000000000000000 ) ) ;
#438 = SURFACE_SIDE_STYLE ('',( #133 ) ) ;
#439 = AXIS2_PLACEMENT_3D ( 'NONE', #1027, #1117, #687 ) ;
#440 = ORIENTED_EDGE ( 'NONE', *, *, #372, .T. ) ;
#441 = AXIS2_PLACEMENT_3D ( 'NONE', #550, #759, #146 ) ;
#442 = ADVANCED_FACE ( 'NONE', ( #1236, #1137 ), #1253, .T. ) ;
#443 = ORIENTED_EDGE ( 'NONE', *, *, #63, .F. ) ;
#444 = CARTESIAN_POINT ( 'NONE',  ( 0.5000000000000000000, 0.000000000000000000, 0.000000000000000000 ) ) ;
#445 = ADVANCED_BREP_SHAPE_REPRESENTATION ( 'CGA3E3X7R1H105K080AB', ( #940, #576 ), #1307 ) ;
#446 =( GEOMETRIC_REPRESENTATION_CONTEXT ( 3 ) GLOBAL_UNCERTAINTY_ASSIGNED_CONTEXT ( ( #407 ) ) GLOBAL_UNIT_ASSIGNED_CONTEXT ( ( #1241, #637, #541 ) ) REPRESENTATION_CONTEXT ( 'NONE', 'WORKASPACE' ) );
#447 = CARTESIAN_POINT ( 'NONE',  ( -0.5000000000000000000, 0.000000000000000000, 0.000000000000000000 ) ) ;
#448 = ORIENTED_EDGE ( 'NONE', *, *, #595, .T. ) ;
#449 =( NAMED_UNIT ( * ) PLANE_ANGLE_UNIT ( ) SI_UNIT ( $, .RADIAN. ) );
#450 = EDGE_CURVE ( 'NONE', #108, #16, #367, .T. ) ;
#451 = CARTESIAN_POINT ( 'NONE',  ( 0.5000000000000000000, -0.3800000000000000044, 0.3800000000000000044 ) ) ;
#452 = ADVANCED_FACE ( 'NONE', ( #626 ), #849, .F. ) ;
#453 = VECTOR ( 'NONE', #1093, 1000.000000000000000 ) ;
#454 = AXIS2_PLACEMENT_3D ( 'NONE', #1315, #92, #803 ) ;
#455 = VERTEX_POINT ( 'NONE', #215 ) ;
#456 = SURFACE_SIDE_STYLE ('',( #41 ) ) ;
#457 = ORIENTED_EDGE ( 'NONE', *, *, #1273, .F. ) ;
#458 = PLANE ( 'NONE',  #764 ) ;
#459 = ADVANCED_FACE ( 'NONE', ( #1260 ), #320, .T. ) ;
#460 = DIRECTION ( 'NONE',  ( -1.000000000000000000, 0.000000000000000000, 0.000000000000000000 ) ) ;
#461 = EDGE_CURVE ( 'NONE', #1051, #9, #343, .T. ) ;
#462 = AXIS2_PLACEMENT_3D ( 'NONE', #355, #1161, #864 ) ;
#463 = ORIENTED_EDGE ( 'NONE', *, *, #621, .T. ) ;
#464 = VERTEX_POINT ( 'NONE', #1156 ) ;
#465 = SURFACE_STYLE_FILL_AREA ( #364 ) ;
#466 = AXIS2_PLACEMENT_3D ( 'NONE', #1168, #754, #982 ) ;
#467 = VECTOR ( 'NONE', #508, 1000.000000000000000 ) ;
#468 = DIRECTION ( 'NONE',  ( -1.000000000000000000, 0.000000000000000000, 0.000000000000000000 ) ) ;
#469 = PRESENTATION_STYLE_ASSIGNMENT (( #1275 ) ) ;
#470 = ORIENTED_EDGE ( 'NONE', *, *, #1092, .T. ) ;
#471 = DIRECTION ( 'NONE',  ( 0.000000000000000000, 1.000000000000000000, 0.000000000000000000 ) ) ;
#472 = ORIENTED_EDGE ( 'NONE', *, *, #676, .F. ) ;
#473 =( NAMED_UNIT ( * ) PLANE_ANGLE_UNIT ( ) SI_UNIT ( $, .RADIAN. ) );
#474 = DIRECTION ( 'NONE',  ( 0.000000000000000000, 0.000000000000000000, 1.000000000000000000 ) ) ;
#475 = EDGE_CURVE ( 'NONE', #746, #1026, #1060, .T. ) ;
#476 = ADVANCED_FACE ( 'NONE', ( #132 ), #939, .F. ) ;
#477 = FACE_OUTER_BOUND ( 'NONE', #1123, .T. ) ;
#478 = VECTOR ( 'NONE', #227, 1000.000000000000000 ) ;
#479 = CARTESIAN_POINT ( 'NONE',  ( 0.7999999999999999334, 0.3499999999999999778, 0.3499999999999999223 ) ) ;
#480 = VERTEX_POINT ( 'NONE', #222 ) ;
#481 = DIRECTION ( 'NONE',  ( 1.000000000000000000, 0.000000000000000000, 0.000000000000000000 ) ) ;
#482 = SURFACE_SIDE_STYLE ('',( #269 ) ) ;
#483 = CIRCLE ( 'NONE', #1188, 0.05000000000000002359 ) ;
#484 = ORIENTED_EDGE ( 'NONE', *, *, #44, .T. ) ;
#485 = VECTOR ( 'NONE', #1097, 1000.000000000000000 ) ;
#486 = DIRECTION ( 'NONE',  ( 0.000000000000000000, -1.000000000000000000, -0.000000000000000000 ) ) ;
#487 = AXIS2_PLACEMENT_3D ( 'NONE', #204, #1036, #615 ) ;
#488 = EDGE_CURVE ( 'NONE', #1318, #115, #1057, .T. ) ;
#489 = AXIS2_PLACEMENT_3D ( 'NONE', #807, #1031, #923 ) ;
#490 = VECTOR ( 'NONE', #825, 1000.000000000000000 ) ;
#491 = AXIS2_PLACEMENT_3D ( 'NONE', #901, #166, #800 ) ;
#492 = CARTESIAN_POINT ( 'NONE',  ( -0.5000000000000000000, 0.4000000000000000222, -0.3500000000000000333 ) ) ;
#493 = APPLICATION_CONTEXT ( 'automotive_design' ) ;
#494 = VERTEX_POINT ( 'NONE', #1265 ) ;
#495 = FACE_OUTER_BOUND ( 'NONE', #361, .T. ) ;
#496 = EDGE_CURVE ( 'NONE', #1227, #632, #65, .T. ) ;
#497 = EDGE_LOOP ( 'NONE', ( #817, #778, #735, #1063 ) ) ;
#498 = ORIENTED_EDGE ( 'NONE', *, *, #1290, .T. ) ;
#499 = CARTESIAN_POINT ( 'NONE',  ( -0.5000000000000000000, 0.3499999999999999778, 0.3499999999999999223 ) ) ;
#500 = DIRECTION ( 'NONE',  ( -0.000000000000000000, 1.000000000000000000, -0.000000000000000000 ) ) ;
#501 = CARTESIAN_POINT ( 'NONE',  ( 0.7499999999999998890, 0.4000000000000000222, 0.3999999999999999667 ) ) ;
#502 = FACE_OUTER_BOUND ( 'NONE', #630, .T. ) ;
#503 = EDGE_LOOP ( 'NONE', ( #470, #300, #294, #756, #1259, #966, #421, #308 ) ) ;
#504 = DIRECTION ( 'NONE',  ( 0.000000000000000000, 0.000000000000000000, -1.000000000000000000 ) ) ;
#505 = AXIS2_PLACEMENT_3D ( 'NONE', #887, #255, #272 ) ;
#506 = DIRECTION ( 'NONE',  ( -1.000000000000000000, 0.000000000000000000, 0.000000000000000000 ) ) ;
#507 = UNCERTAINTY_MEASURE_WITH_UNIT (LENGTH_MEASURE( 1.000000000000000082E-05 ), #561, 'distance_accuracy_value', 'NONE');
#508 = DIRECTION ( 'NONE',  ( 1.000000000000000000, -0.000000000000000000, -0.000000000000000000 ) ) ;
#509 = VECTOR ( 'NONE', #1225, 1000.000000000000000 ) ;
#510 = VECTOR ( 'NONE', #3, 1000.000000000000000 ) ;
#511 = CARTESIAN_POINT ( 'NONE',  ( -0.7999999999999999334, -0.3499999999999999778, 0.3499999999999999223 ) ) ;
#512 = ORIENTED_EDGE ( 'NONE', *, *, #1072, .T. ) ;
#513 = FACE_OUTER_BOUND ( 'NONE', #740, .T. ) ;
#514 = EDGE_LOOP ( 'NONE', ( #57, #1010, #1309, #712 ) ) ;
#515 = DIRECTION ( 'NONE',  ( 1.000000000000000000, 0.000000000000000000, -0.000000000000000000 ) ) ;
#516 = CARTESIAN_POINT ( 'NONE',  ( 0.5000000000000000000, 0.3300000000000000155, -0.3800000000000000044 ) ) ;
#517 = CARTESIAN_POINT ( 'NONE',  ( -0.7499999999999998890, -0.3499999999999999778, 0.3499999999999999223 ) ) ;
#518 = ORIENTED_EDGE ( 'NONE', *, *, #496, .T. ) ;
#519 = SPHERICAL_SURFACE ( 'NONE', #659, 0.05000000000000000278 ) ;
#520 = VECTOR ( 'NONE', #1245, 1000.000000000000000 ) ;
#521 = AXIS2_PLACEMENT_3D ( 'NONE', #1310, #486, #176 ) ;
#522 = DIRECTION ( 'NONE',  ( 1.000000000000000000, -0.000000000000000000, -0.000000000000000000 ) ) ;
#523 = DIRECTION ( 'NONE',  ( 0.000000000000000000, 0.000000000000000000, 1.000000000000000000 ) ) ;
#524 = DIRECTION ( 'NONE',  ( -1.000000000000000000, 0.000000000000000000, 0.000000000000000000 ) ) ;
#525 = EDGE_LOOP ( 'NONE', ( #239, #196, #1333, #1312 ) ) ;
#526 = DIRECTION ( 'NONE',  ( -1.000000000000000000, 0.000000000000000000, -0.000000000000000000 ) ) ;
#527 = ORIENTED_EDGE ( 'NONE', *, *, #345, .T. ) ;
#528 = EDGE_CURVE ( 'NONE', #814, #1040, #10, .T. ) ;
#529 = PLANE ( 'NONE',  #145 ) ;
#530 = CIRCLE ( 'NONE', #505, 0.05000000000000002359 ) ;
#531 = PRESENTATION_LAYER_ASSIGNMENT (  '', '', ( #357 ) ) ;
#532 = AXIS2_PLACEMENT_3D ( 'NONE', #62, #1119, #888 ) ;
#533 = CARTESIAN_POINT ( 'NONE',  ( 0.5000000000000000000, -0.4000000000000000222, 0.3999999999999999667 ) ) ;
#534 = ORIENTED_EDGE ( 'NONE', *, *, #433, .T. ) ;
#535 = ORIENTED_EDGE ( 'NONE', *, *, #390, .T. ) ;
#536 = EDGE_CURVE ( 'NONE', #912, #494, #1269, .T. ) ;
#537 = CIRCLE ( 'NONE', #916, 0.05000000000000002359 ) ;
#538 = DIRECTION ( 'NONE',  ( 0.000000000000000000, 0.000000000000000000, -1.000000000000000000 ) ) ;
#539 = ADVANCED_FACE ( 'NONE', ( #159 ), #678, .T. ) ;
#540 = CARTESIAN_POINT ( 'NONE',  ( 0.7999999999999999334, -0.3499999999999999778, -0.4000000000000000777 ) ) ;
#541 =( NAMED_UNIT ( * ) SI_UNIT ( $, .STERADIAN. ) SOLID_ANGLE_UNIT ( ) );
#542 = ORIENTED_EDGE ( 'NONE', *, *, #1015, .F. ) ;
#543 = CARTESIAN_POINT ( 'NONE',  ( 0.5000000000000000000, 0.4000000000000000222, 0.3499999999999999223 ) ) ;
#544 = DIRECTION ( 'NONE',  ( -1.000000000000000000, 0.000000000000000000, 0.000000000000000000 ) ) ;
#545 = DIRECTION ( 'NONE',  ( 1.000000000000000000, 0.000000000000000000, -0.000000000000000000 ) ) ;
#546 = LINE ( 'NONE', #1288, #1152 ) ;
#547 = EDGE_LOOP ( 'NONE', ( #154, #1114, #671, #1181, #1082, #527, #211, #614 ) ) ;
#548 = CARTESIAN_POINT ( 'NONE',  ( -0.5000000000000000000, -0.3800000000000000044, -0.3300000000000000155 ) ) ;
#549 = DIRECTION ( 'NONE',  ( 0.000000000000000000, -0.000000000000000000, 1.000000000000000000 ) ) ;
#550 = CARTESIAN_POINT ( 'NONE',  ( 0.5000000000000000000, 0.3300000000000000155, -0.3300000000000000155 ) ) ;
#551 = EDGE_CURVE ( 'NONE', #794, #788, #37, .T. ) ;
#552 = SURFACE_SIDE_STYLE ('',( #876 ) ) ;
#553 = ORIENTED_EDGE ( 'NONE', *, *, #374, .F. ) ;
#554 = VECTOR ( 'NONE', #787, 1000.000000000000000 ) ;
#555 = VECTOR ( 'NONE', #241, 1000.000000000000000 ) ;
#556 = FACE_OUTER_BOUND ( 'NONE', #1078, .T. ) ;
#557 = DIRECTION ( 'NONE',  ( -1.000000000000000000, 0.000000000000000000, 0.000000000000000000 ) ) ;
#558 = VERTEX_POINT ( 'NONE', #886 ) ;
#559 = EDGE_CURVE ( 'NONE', #106, #814, #168, .T. ) ;
#560 = CARTESIAN_POINT ( 'NONE',  ( -0.7999999999999999334, 0.3499999999999999778, -0.4000000000000000777 ) ) ;
#561 =( LENGTH_UNIT ( ) NAMED_UNIT ( * ) SI_UNIT ( .MILLI., .METRE. ) );
#562 = CYLINDRICAL_SURFACE ( 'NONE', #296, 0.05000000000000002359 ) ;
#563 = EDGE_LOOP ( 'NONE', ( #347, #150, #686, #6 ) ) ;
#564 = CYLINDRICAL_SURFACE ( 'NONE', #466, 0.05000000000000002359 ) ;
#565 = ORIENTED_EDGE ( 'NONE', *, *, #1144, .F. ) ;
#566 = CARTESIAN_POINT ( 'NONE',  ( -0.5000000000000000000, 0.3300000000000000155, 0.3300000000000000155 ) ) ;
#567 = DIRECTION ( 'NONE',  ( -1.000000000000000000, 0.000000000000000000, 0.000000000000000000 ) ) ;
#568 = CIRCLE ( 'NONE', #961, 0.05000000000000002359 ) ;
#569 = ORIENTED_EDGE ( 'NONE', *, *, #243, .F. ) ;
#570 = LINE ( 'NONE', #1064, #1048 ) ;
#571 = SURFACE_STYLE_USAGE ( .BOTH. , #663 ) ;
#572 = AXIS2_PLACEMENT_3D ( 'NONE', #801, #292, #704 ) ;
#573 = AXIS2_PLACEMENT_3D ( 'NONE', #447, #545, #861 ) ;
#574 = EDGE_CURVE ( 'NONE', #858, #349, #163, .T. ) ;
#575 = CARTESIAN_POINT ( 'NONE',  ( 0.7499999999999998890, 0.4000000000000000222, -0.3500000000000000333 ) ) ;
#576 = AXIS2_PLACEMENT_3D ( 'NONE', #381, #577, #280 ) ;
#577 = DIRECTION ( 'NONE',  ( 0.000000000000000000, 0.000000000000000000, 1.000000000000000000 ) ) ;
#578 = LINE ( 'NONE', #685, #53 ) ;
#579 = ORIENTED_EDGE ( 'NONE', *, *, #496, .F. ) ;
#580 = CARTESIAN_POINT ( 'NONE',  ( 0.5000000000000000000, -0.3499999999999999778, -0.3500000000000000333 ) ) ;
#581 = ADVANCED_FACE ( 'NONE', ( #359 ), #458, .F. ) ;
#582 = EDGE_CURVE ( 'NONE', #393, #392, #802, .T. ) ;
#583 = EDGE_LOOP ( 'NONE', ( #588, #641, #1338, #1242 ) ) ;
#584 = CARTESIAN_POINT ( 'NONE',  ( -0.5000000000000000000, -0.3499999999999999778, -0.4000000000000000777 ) ) ;
#585 = DIRECTION ( 'NONE',  ( 0.000000000000000000, 0.000000000000000000, 1.000000000000000000 ) ) ;
#586 = DIRECTION ( 'NONE',  ( -1.000000000000000000, 0.000000000000000000, 0.000000000000000000 ) ) ;
#587 = AXIS2_PLACEMENT_3D ( 'NONE', #1021, #303, #1317 ) ;
#588 = ORIENTED_EDGE ( 'NONE', *, *, #282, .F. ) ;
#589 = CARTESIAN_POINT ( 'NONE',  ( -0.7999999999999999334, -0.4000000000000000222, 0.3999999999999999667 ) ) ;
#590 = CLOSED_SHELL ( 'NONE', ( #351, #1240, #452, #605, #431, #1163, #828, #476, #290, #442, #186, #1166, #755, #937, #157, #581, #830, #1316, #304, #929, #192, #412, #249, #93, #879, #925, #714, #1203, #51, #684, #425, #1007, #539, #908, #782, #750, #1329, #910, #459, #1100, #1299, #969, #209, #1053 ) ) ;
#591 = VERTEX_POINT ( 'NONE', #984 ) ;
#592 = CYLINDRICAL_SURFACE ( 'NONE', #572, 0.05000000000000002359 ) ;
#593 = VERTEX_POINT ( 'NONE', #1170 ) ;
#594 = SPHERICAL_SURFACE ( 'NONE', #893, 0.05000000000000000278 ) ;
#595 = EDGE_CURVE ( 'NONE', #945, #108, #60, .T. ) ;
#596 =( NAMED_UNIT ( * ) PLANE_ANGLE_UNIT ( ) SI_UNIT ( $, .RADIAN. ) );
#597 = DIRECTION ( 'NONE',  ( -0.000000000000000000, -1.000000000000000000, -0.000000000000000000 ) ) ;
#598 = DIRECTION ( 'NONE',  ( -1.000000000000000000, -0.000000000000000000, -0.000000000000000000 ) ) ;
#599 = CYLINDRICAL_SURFACE ( 'NONE', #785, 0.05000000000000002359 ) ;
#600 = DIRECTION ( 'NONE',  ( 0.000000000000000000, 0.000000000000000000, -1.000000000000000000 ) ) ;
#601 = VERTEX_POINT ( 'NONE', #246 ) ;
#602 = ORIENTED_EDGE ( 'NONE', *, *, #139, .T. ) ;
#603 = DIRECTION ( 'NONE',  ( 0.000000000000000000, 0.000000000000000000, 1.000000000000000000 ) ) ;
#604 = AXIS2_PLACEMENT_3D ( 'NONE', #695, #395, #600 ) ;
#605 = ADVANCED_FACE ( 'NONE', ( #770 ), #890, .F. ) ;
#606 = AXIS2_PLACEMENT_3D ( 'NONE', #1201, #1215, #86 ) ;
#607 = CARTESIAN_POINT ( 'NONE',  ( -0.7499999999999998890, -0.4000000000000000222, -0.3500000000000000333 ) ) ;
#608 = COLOUR_RGB ( '',0.7921568627450980005, 0.8196078431372548767, 0.9333333333333333481 ) ;
#609 = ORIENTED_EDGE ( 'NONE', *, *, #73, .T. ) ;
#610 = AXIS2_PLACEMENT_3D ( 'NONE', #174, #586, #1003 ) ;
#611 = AXIS2_PLACEMENT_3D ( 'NONE', #325, #140, #1239 ) ;
#612 = FACE_OUTER_BOUND ( 'NONE', #1324, .T. ) ;
#613 = STYLED_ITEM ( 'NONE', ( #834 ), #1240 ) ;
#614 = ORIENTED_EDGE ( 'NONE', *, *, #670, .T. ) ;
#615 = DIRECTION ( 'NONE',  ( 1.000000000000000000, 0.000000000000000000, 0.000000000000000000 ) ) ;
#616 = ORIENTED_EDGE ( 'NONE', *, *, #291, .F. ) ;
#617 = CARTESIAN_POINT ( 'NONE',  ( 0.5000000000000000000, 0.3300000000000000155, 0.3300000000000000155 ) ) ;
#618 = ORIENTED_EDGE ( 'NONE', *, *, #733, .T. ) ;
#619 = CARTESIAN_POINT ( 'NONE',  ( -0.5000000000000000000, -0.3800000000000000044, 0.3800000000000000044 ) ) ;
#620 = ORIENTED_EDGE ( 'NONE', *, *, #1298, .T. ) ;
#621 = EDGE_CURVE ( 'NONE', #323, #591, #970, .T. ) ;
#622 = CARTESIAN_POINT ( 'NONE',  ( 0.5000000000000000000, -0.3800000000000000044, -0.3800000000000000044 ) ) ;
#623 = AXIS2_PLACEMENT_3D ( 'NONE', #899, #198, #702 ) ;
#624 = EDGE_LOOP ( 'NONE', ( #190, #124, #1142, #1101 ) ) ;
#625 = CIRCLE ( 'NONE', #68, 0.05000000000000002359 ) ;
#626 = FACE_OUTER_BOUND ( 'NONE', #514, .T. ) ;
#627 = CARTESIAN_POINT ( 'NONE',  ( -0.7999999999999999334, 0.4000000000000000222, 0.3999999999999999667 ) ) ;
#628 = EDGE_CURVE ( 'NONE', #310, #326, #266, .T. ) ;
#629 = EDGE_CURVE ( 'NONE', #591, #480, #1297, .T. ) ;
#630 = EDGE_LOOP ( 'NONE', ( #579, #231, #1128, #91 ) ) ;
#631 = DIRECTION ( 'NONE',  ( 0.000000000000000000, 0.000000000000000000, 1.000000000000000000 ) ) ;
#632 = VERTEX_POINT ( 'NONE', #789 ) ;
#633 = DIRECTION ( 'NONE',  ( 0.000000000000000000, 0.000000000000000000, 1.000000000000000000 ) ) ;
#634 = SPHERICAL_SURFACE ( 'NONE', #791, 0.05000000000000000278 ) ;
#635 = VECTOR ( 'NONE', #977, 1000.000000000000000 ) ;
#636 = VECTOR ( 'NONE', #902, 1000.000000000000000 ) ;
#637 =( NAMED_UNIT ( * ) PLANE_ANGLE_UNIT ( ) SI_UNIT ( $, .RADIAN. ) );
#638 = AXIS2_PLACEMENT_3D ( 'NONE', #1138, #340, #1254 ) ;
#639 = ORIENTED_EDGE ( 'NONE', *, *, #1072, .F. ) ;
#640 = CYLINDRICAL_SURFACE ( 'NONE', #681, 0.05000000000000002359 ) ;
#641 = ORIENTED_EDGE ( 'NONE', *, *, #70, .F. ) ;
#642 = COLOUR_RGB ( '',0.6352941176470587870, 0.2862745098039215508, 0.000000000000000000 ) ;
#643 = FILL_AREA_STYLE ('',( #17 ) ) ;
#644 = CYLINDRICAL_SURFACE ( 'NONE', #832, 0.05000000000000002359 ) ;
#645 = FILL_AREA_STYLE_COLOUR ( '', #642 ) ;
#646 = ORIENTED_EDGE ( 'NONE', *, *, #54, .T. ) ;
#647 = DIRECTION ( 'NONE',  ( 0.000000000000000000, 1.000000000000000000, 0.000000000000000000 ) ) ;
#648 = DIRECTION ( 'NONE',  ( -1.000000000000000000, -0.000000000000000000, -0.000000000000000000 ) ) ;
#649 =( GEOMETRIC_REPRESENTATION_CONTEXT ( 3 ) GLOBAL_UNCERTAINTY_ASSIGNED_CONTEXT ( ( #1327 ) ) GLOBAL_UNIT_ASSIGNED_CONTEXT ( ( #1054, #946, #329 ) ) REPRESENTATION_CONTEXT ( 'NONE', 'WORKASPACE' ) );
#650 = AXIS2_PLACEMENT_3D ( 'NONE', #589, #895, #172 ) ;
#651 = CARTESIAN_POINT ( 'NONE',  ( 0.5000000000000000000, 0.3800000000000000044, 0.3300000000000000155 ) ) ;
#652 = DIRECTION ( 'NONE',  ( 0.000000000000000000, -1.000000000000000000, -0.000000000000000000 ) ) ;
#653 = EDGE_LOOP ( 'NONE', ( #709, #102, #20, #884 ) ) ;
#654 =( NAMED_UNIT ( * ) SI_UNIT ( $, .STERADIAN. ) SOLID_ANGLE_UNIT ( ) );
#655 = DIRECTION ( 'NONE',  ( -1.000000000000000000, 0.000000000000000000, 0.000000000000000000 ) ) ;
#656 = DIRECTION ( 'NONE',  ( 0.000000000000000000, 0.000000000000000000, -1.000000000000000000 ) ) ;
#657 = AXIS2_PLACEMENT_3D ( 'NONE', #783, #994, #672 ) ;
#658 = LINE ( 'NONE', #752, #206 ) ;
#659 = AXIS2_PLACEMENT_3D ( 'NONE', #842, #1052, #1135 ) ;
#660 = VERTEX_POINT ( 'NONE', #295 ) ;
#661 = FILL_AREA_STYLE_COLOUR ( '', #608 ) ;
#662 = AXIS2_PLACEMENT_3D ( 'NONE', #322, #1041, #656 ) ;
#663 = SURFACE_SIDE_STYLE ('',( #465 ) ) ;
#664 = CIRCLE ( 'NONE', #1070, 0.05000000000000002359 ) ;
#665 = CARTESIAN_POINT ( 'NONE',  ( -0.7999999999999999334, 0.3499999999999999778, -0.3500000000000000333 ) ) ;
#666 = CARTESIAN_POINT ( 'NONE',  ( -0.7499999999999998890, -0.3499999999999999778, -0.3500000000000000333 ) ) ;
#667 = ORIENTED_EDGE ( 'NONE', *, *, #488, .F. ) ;
#668 = DIRECTION ( 'NONE',  ( 1.000000000000000000, 0.000000000000000000, 0.000000000000000000 ) ) ;
#669 = MECHANICAL_DESIGN_GEOMETRIC_PRESENTATION_REPRESENTATION (  '', ( #49 ), #1322 ) ;
#670 = EDGE_CURVE ( 'NONE', #404, #858, #265, .T. ) ;
#671 = ORIENTED_EDGE ( 'NONE', *, *, #2, .F. ) ;
#672 = DIRECTION ( 'NONE',  ( 1.000000000000000000, 0.000000000000000000, 0.000000000000000000 ) ) ;
#673 = DIRECTION ( 'NONE',  ( -1.000000000000000000, -0.000000000000000000, 0.000000000000000000 ) ) ;
#674 = ORIENTED_EDGE ( 'NONE', *, *, #1132, .T. ) ;
#675 = CARTESIAN_POINT ( 'NONE',  ( 0.7499999999999998890, -0.3499999999999999778, -0.3500000000000000333 ) ) ;
#676 = EDGE_CURVE ( 'NONE', #981, #696, #1189, .T. ) ;
#677 = ORIENTED_EDGE ( 'NONE', *, *, #333, .F. ) ;
#678 = SPHERICAL_SURFACE ( 'NONE', #867, 0.05000000000000000278 ) ;
#679 = DIRECTION ( 'NONE',  ( -0.000000000000000000, -0.000000000000000000, 1.000000000000000000 ) ) ;
#680 = STYLED_ITEM ( 'NONE', ( #389 ), #351 ) ;
#681 = AXIS2_PLACEMENT_3D ( 'NONE', #411, #1228, #405 ) ;
#682 = ORIENTED_EDGE ( 'NONE', *, *, #64, .T. ) ;
#683 = LINE ( 'NONE', #1278, #1066 ) ;
#684 = ADVANCED_FACE ( 'NONE', ( #284 ), #599, .T. ) ;
#685 = CARTESIAN_POINT ( 'NONE',  ( -0.7999999999999999334, 0.4000000000000000222, 0.3499999999999999223 ) ) ;
#686 = ORIENTED_EDGE ( 'NONE', *, *, #1199, .F. ) ;
#687 = DIRECTION ( 'NONE',  ( 0.000000000000000000, 0.000000000000000000, 1.000000000000000000 ) ) ;
#688 =( NAMED_UNIT ( * ) PLANE_ANGLE_UNIT ( ) SI_UNIT ( $, .RADIAN. ) );
#689 = EDGE_CURVE ( 'NONE', #601, #718, #27, .T. ) ;
#690 = AXIS2_PLACEMENT_3D ( 'NONE', #1046, #1272, #240 ) ;
#691 = CIRCLE ( 'NONE', #113, 0.05000000000000002359 ) ;
#692 = LINE ( 'NONE', #1295, #379 ) ;
#693 = ORIENTED_EDGE ( 'NONE', *, *, #953, .T. ) ;
#694 = CARTESIAN_POINT ( 'NONE',  ( 0.5000000000000000000, -0.4000000000000000222, -0.3500000000000000333 ) ) ;
#695 = CARTESIAN_POINT ( 'NONE',  ( 0.7499999999999998890, 0.3499999999999999778, -0.3500000000000000333 ) ) ;
#696 = VERTEX_POINT ( 'NONE', #584 ) ;
#697 = EDGE_CURVE ( 'NONE', #393, #16, #271, .T. ) ;
#698 = CARTESIAN_POINT ( 'NONE',  ( -0.7999999999999999334, -0.4000000000000000222, -0.3500000000000000333 ) ) ;
#699 = ORIENTED_EDGE ( 'NONE', *, *, #1092, .F. ) ;
#700 = CARTESIAN_POINT ( 'NONE',  ( 0.7499999999999998890, 0.3499999999999999778, 0.000000000000000000 ) ) ;
#701 = STYLED_ITEM ( 'NONE', ( #1095 ), #1053 ) ;
#702 = DIRECTION ( 'NONE',  ( 0.000000000000000000, 0.000000000000000000, 1.000000000000000000 ) ) ;
#703 = CARTESIAN_POINT ( 'NONE',  ( 0.7999999999999999334, -0.3499999999999999778, 0.000000000000000000 ) ) ;
#704 = DIRECTION ( 'NONE',  ( -1.000000000000000000, 0.000000000000000000, 0.000000000000000000 ) ) ;
#705 = ORIENTED_EDGE ( 'NONE', *, *, #868, .T. ) ;
#706 = FACE_OUTER_BOUND ( 'NONE', #1244, .T. ) ;
#707 = SURFACE_STYLE_USAGE ( .BOTH. , #921 ) ;
#708 = UNCERTAINTY_MEASURE_WITH_UNIT (LENGTH_MEASURE( 1.000000000000000082E-05 ), #254, 'distance_accuracy_value', 'NONE');
#709 = ORIENTED_EDGE ( 'NONE', *, *, #860, .F. ) ;
#710 = AXIS2_PLACEMENT_3D ( 'NONE', #1001, #585, #515 ) ;
#711 = EDGE_CURVE ( 'NONE', #283, #814, #1125, .T. ) ;
#712 = ORIENTED_EDGE ( 'NONE', *, *, #293, .T. ) ;
#713 = CARTESIAN_POINT ( 'NONE',  ( 0.7499999999999998890, 0.000000000000000000, -0.3500000000000000333 ) ) ;
#714 = ADVANCED_FACE ( 'NONE', ( #513 ), #594, .T. ) ;
#715 = CYLINDRICAL_SURFACE ( 'NONE', #623, 0.05000000000000002359 ) ;
#716 = CARTESIAN_POINT ( 'NONE',  ( 0.7499999999999998890, 0.3499999999999999778, 0.3499999999999999223 ) ) ;
#717 = EDGE_CURVE ( 'NONE', #1270, #494, #314, .T. ) ;
#718 = VERTEX_POINT ( 'NONE', #1000 ) ;
#719 = DIRECTION ( 'NONE',  ( -1.000000000000000000, 0.000000000000000000, 0.000000000000000000 ) ) ;
#720 = CIRCLE ( 'NONE', #1171, 0.05000000000000002359 ) ;
#721 = ORIENTED_EDGE ( 'NONE', *, *, #333, .T. ) ;
#722 = DIRECTION ( 'NONE',  ( 0.000000000000000000, -1.000000000000000000, 0.000000000000000000 ) ) ;
#723 = LINE ( 'NONE', #906, #247 ) ;
#724 = CIRCLE ( 'NONE', #638, 0.05000000000000002359 ) ;
#725 = EDGE_CURVE ( 'NONE', #696, #326, #1208, .T. ) ;
#726 = FACE_OUTER_BOUND ( 'NONE', #410, .T. ) ;
#727 = AXIS2_PLACEMENT_3D ( 'NONE', #870, #883, #965 ) ;
#728 = ORIENTED_EDGE ( 'NONE', *, *, #189, .T. ) ;
#729 = CARTESIAN_POINT ( 'NONE',  ( 0.7999999999999999334, -0.3499999999999999778, 0.3499999999999999223 ) ) ;
#730 = ORIENTED_EDGE ( 'NONE', *, *, #1014, .F. ) ;
#731 = DIRECTION ( 'NONE',  ( 0.000000000000000000, 0.000000000000000000, 1.000000000000000000 ) ) ;
#732 = CARTESIAN_POINT ( 'NONE',  ( -0.5000000000000000000, 0.3800000000000000044, 0.3800000000000000044 ) ) ;
#733 = EDGE_CURVE ( 'NONE', #1040, #257, #691, .T. ) ;
#734 = CARTESIAN_POINT ( 'NONE',  ( -0.7999999999999999334, 0.3499999999999999778, -0.4000000000000000777 ) ) ;
#735 = ORIENTED_EDGE ( 'NONE', *, *, #955, .T. ) ;
#736 = DIRECTION ( 'NONE',  ( 1.000000000000000000, 0.000000000000000000, -0.000000000000000000 ) ) ;
#737 = EDGE_LOOP ( 'NONE', ( #313, #34, #1084 ) ) ;
#738 = CARTESIAN_POINT ( 'NONE',  ( 0.7999999999999999334, -0.4000000000000000222, -0.3500000000000000333 ) ) ;
#739 = DIRECTION ( 'NONE',  ( -1.000000000000000000, -0.000000000000000000, 0.000000000000000000 ) ) ;
#740 = EDGE_LOOP ( 'NONE', ( #328, #259, #959 ) ) ;
#741 = DIRECTION ( 'NONE',  ( 0.000000000000000000, 0.000000000000000000, -1.000000000000000000 ) ) ;
#742 = PRESENTATION_STYLE_ASSIGNMENT (( #838 ) ) ;
#743 = DIRECTION ( 'NONE',  ( -0.000000000000000000, -0.000000000000000000, 1.000000000000000000 ) ) ;
#744 = VECTOR ( 'NONE', #797, 1000.000000000000000 ) ;
#745 = CARTESIAN_POINT ( 'NONE',  ( 0.7999999999999999334, -0.3499999999999999778, 0.3999999999999999667 ) ) ;
#746 = VERTEX_POINT ( 'NONE', #694 ) ;
#747 = DIRECTION ( 'NONE',  ( -0.000000000000000000, 0.000000000000000000, -1.000000000000000000 ) ) ;
#748 = ORIENTED_EDGE ( 'NONE', *, *, #80, .T. ) ;
#749 = AXIS2_PLACEMENT_3D ( 'NONE', #924, #845, #524 ) ;
#750 = ADVANCED_FACE ( 'NONE', ( #706 ), #301, .T. ) ;
#751 = DIRECTION ( 'NONE',  ( -0.000000000000000000, -0.000000000000000000, 1.000000000000000000 ) ) ;
#752 = CARTESIAN_POINT ( 'NONE',  ( 0.7999999999999999334, 0.3499999999999999778, -0.4000000000000000777 ) ) ;
#753 = ORIENTED_EDGE ( 'NONE', *, *, #1144, .T. ) ;
#754 = DIRECTION ( 'NONE',  ( -1.000000000000000000, 0.000000000000000000, 0.000000000000000000 ) ) ;
#755 = ADVANCED_FACE ( 'NONE', ( #495 ), #72, .T. ) ;
#756 = ORIENTED_EDGE ( 'NONE', *, *, #99, .T. ) ;
#757 = CARTESIAN_POINT ( 'NONE',  ( -0.7499999999999998890, -0.4000000000000000222, -0.4000000000000000777 ) ) ;
#758 = AXIS2_PLACEMENT_3D ( 'NONE', #444, #544, #111 ) ;
#759 = DIRECTION ( 'NONE',  ( 1.000000000000000000, -0.000000000000000000, -0.000000000000000000 ) ) ;
#760 = CARTESIAN_POINT ( 'NONE',  ( -0.7499999999999998890, 0.3499999999999999778, -0.3500000000000000333 ) ) ;
#761 = ORIENTED_EDGE ( 'NONE', *, *, #528, .F. ) ;
#762 = DIRECTION ( 'NONE',  ( 0.000000000000000000, 0.000000000000000000, -1.000000000000000000 ) ) ;
#763 = CIRCLE ( 'NONE', #604, 0.05000000000000002359 ) ;
#764 = AXIS2_PLACEMENT_3D ( 'NONE', #42, #48, #1085 ) ;
#765 = CARTESIAN_POINT ( 'NONE',  ( 0.5000000000000000000, -0.3300000000000000155, -0.3300000000000000155 ) ) ;
#766 = EDGE_CURVE ( 'NONE', #9, #601, #191, .T. ) ;
#767 = AXIS2_PLACEMENT_3D ( 'NONE', #675, #1083, #958 ) ;
#768 = VERTEX_POINT ( 'NONE', #1195 ) ;
#769 = SURFACE_STYLE_USAGE ( .BOTH. , #456 ) ;
#770 = FACE_OUTER_BOUND ( 'NONE', #370, .T. ) ;
#771 = VECTOR ( 'NONE', #972, 1000.000000000000000 ) ;
#772 = FACE_OUTER_BOUND ( 'NONE', #147, .T. ) ;
#773 = EDGE_CURVE ( 'NONE', #1264, #814, #926, .T. ) ;
#774 = DIRECTION ( 'NONE',  ( 1.000000000000000000, 0.000000000000000000, 0.000000000000000000 ) ) ;
#775 = ORIENTED_EDGE ( 'NONE', *, *, #1107, .F. ) ;
#776 = CARTESIAN_POINT ( 'NONE',  ( -0.5000000000000000000, -0.4000000000000000222, -0.3500000000000000333 ) ) ;
#777 = CARTESIAN_POINT ( 'NONE',  ( -0.5000000000000000000, -0.4000000000000000222, 0.3499999999999999223 ) ) ;
#778 = ORIENTED_EDGE ( 'NONE', *, *, #1015, .T. ) ;
#779 = SPHERICAL_SURFACE ( 'NONE', #851, 0.05000000000000000278 ) ;
#780 = EDGE_LOOP ( 'NONE', ( #646, #337, #512, #827 ) ) ;
#781 = DIRECTION ( 'NONE',  ( 0.000000000000000000, 1.000000000000000000, -0.000000000000000000 ) ) ;
#782 = ADVANCED_FACE ( 'NONE', ( #913 ), #1013, .T. ) ;
#783 = CARTESIAN_POINT ( 'NONE',  ( -0.7499999999999998890, -0.3499999999999999778, 0.3999999999999999667 ) ) ;
#784 =( NAMED_UNIT ( * ) PLANE_ANGLE_UNIT ( ) SI_UNIT ( $, .RADIAN. ) );
#785 = AXIS2_PLACEMENT_3D ( 'NONE', #700, #1325, #811 ) ;
#786 = PRESENTATION_LAYER_ASSIGNMENT (  '', '', ( #49 ) ) ;
#787 = DIRECTION ( 'NONE',  ( -0.000000000000000000, -1.000000000000000000, 0.000000000000000000 ) ) ;
#788 = VERTEX_POINT ( 'NONE', #1154 ) ;
#789 = CARTESIAN_POINT ( 'NONE',  ( 0.5000000000000000000, 0.3300000000000000155, 0.3800000000000000044 ) ) ;
#790 = VECTOR ( 'NONE', #121, 1000.000000000000000 ) ;
#791 = AXIS2_PLACEMENT_3D ( 'NONE', #1049, #126, #430 ) ;
#792 = VECTOR ( 'NONE', #1069, 1000.000000000000000 ) ;
#793 = CARTESIAN_POINT ( 'NONE',  ( -0.5000000000000000000, 0.3300000000000000155, -0.3800000000000000044 ) ) ;
#794 = VERTEX_POINT ( 'NONE', #15 ) ;
#795 = DIRECTION ( 'NONE',  ( 0.000000000000000000, 0.000000000000000000, -1.000000000000000000 ) ) ;
#796 = DIRECTION ( 'NONE',  ( -1.000000000000000000, -0.000000000000000000, -0.000000000000000000 ) ) ;
#797 = DIRECTION ( 'NONE',  ( -1.000000000000000000, -0.000000000000000000, 0.000000000000000000 ) ) ;
#798 = LINE ( 'NONE', #1209, #1147 ) ;
#799 = ORIENTED_EDGE ( 'NONE', *, *, #996, .T. ) ;
#800 = DIRECTION ( 'NONE',  ( 0.000000000000000000, 0.000000000000000000, 1.000000000000000000 ) ) ;
#801 = CARTESIAN_POINT ( 'NONE',  ( 0.7499999999999998890, -0.3499999999999999778, 0.000000000000000000 ) ) ;
#802 = CIRCLE ( 'NONE', #179, 0.05000000000000002359 ) ;
#803 = DIRECTION ( 'NONE',  ( 0.000000000000000000, 0.000000000000000000, -1.000000000000000000 ) ) ;
#804 = VECTOR ( 'NONE', #598, 1000.000000000000000 ) ;
#805 = FILL_AREA_STYLE_COLOUR ( '', #245 ) ;
#806 = VECTOR ( 'NONE', #739, 1000.000000000000000 ) ;
#807 = CARTESIAN_POINT ( 'NONE',  ( -0.7499999999999998890, -0.3499999999999999778, -0.3500000000000000333 ) ) ;
#808 = EDGE_CURVE ( 'NONE', #788, #131, #847, .T. ) ;
#809 = STYLED_ITEM ( 'NONE', ( #469 ), #1299 ) ;
#810 = LINE ( 'NONE', #698, #554 ) ;
#811 = DIRECTION ( 'NONE',  ( 1.000000000000000000, 0.000000000000000000, 0.000000000000000000 ) ) ;
#812 = DIRECTION ( 'NONE',  ( 0.000000000000000000, 0.000000000000000000, -1.000000000000000000 ) ) ;
#813 = UNCERTAINTY_MEASURE_WITH_UNIT (LENGTH_MEASURE( 1.000000000000000082E-05 ), #167, 'distance_accuracy_value', 'NONE');
#814 = VERTEX_POINT ( 'NONE', #950 ) ;
#815 = DIRECTION ( 'NONE',  ( 0.000000000000000000, 0.000000000000000000, -1.000000000000000000 ) ) ;
#816 = AXIS2_PLACEMENT_3D ( 'NONE', #617, #522, #731 ) ;
#817 = ORIENTED_EDGE ( 'NONE', *, *, #821, .F. ) ;
#818 = CYLINDRICAL_SURFACE ( 'NONE', #97, 0.05000000000000002359 ) ;
#819 = PLANE ( 'NONE',  #710 ) ;
#820 = EDGE_CURVE ( 'NONE', #349, #257, #625, .T. ) ;
#821 = EDGE_CURVE ( 'NONE', #115, #40, #1252, .T. ) ;
#822 = VERTEX_POINT ( 'NONE', #944 ) ;
#823 = DIRECTION ( 'NONE',  ( -1.000000000000000000, 0.000000000000000000, 0.000000000000000000 ) ) ;
#824 = ORIENTED_EDGE ( 'NONE', *, *, #1047, .F. ) ;
#825 = DIRECTION ( 'NONE',  ( 0.000000000000000000, 0.000000000000000000, -1.000000000000000000 ) ) ;
#826 = AXIS2_PLACEMENT_3D ( 'NONE', #52, #891, #468 ) ;
#827 = ORIENTED_EDGE ( 'NONE', *, *, #374, .T. ) ;
#828 = ADVANCED_FACE ( 'NONE', ( #435 ), #327, .F. ) ;
#829 = DIRECTION ( 'NONE',  ( -1.000000000000000000, 0.000000000000000000, -0.000000000000000000 ) ) ;
#830 = ADVANCED_FACE ( 'NONE', ( #220 ), #7, .T. ) ;
#831 = LINE ( 'NONE', #651, #555 ) ;
#832 = AXIS2_PLACEMENT_3D ( 'NONE', #1197, #567, #971 ) ;
#833 = VECTOR ( 'NONE', #647, 1000.000000000000000 ) ;
#834 = PRESENTATION_STYLE_ASSIGNMENT (( #417 ) ) ;
#835 = AXIS2_PLACEMENT_3D ( 'NONE', #666, #1279, #557 ) ;
#836 = EDGE_LOOP ( 'NONE', ( #238, #402, #1207, #205 ) ) ;
#837 = CARTESIAN_POINT ( 'NONE',  ( -0.7499999999999998890, 0.3499999999999999778, -0.3500000000000000333 ) ) ;
#838 = SURFACE_STYLE_USAGE ( .BOTH. , #931 ) ;
#839 = PLANE ( 'NONE',  #573 ) ;
#840 = SURFACE_STYLE_FILL_AREA ( #307 ) ;
#841 = ORIENTED_EDGE ( 'NONE', *, *, #189, .F. ) ;
#842 = CARTESIAN_POINT ( 'NONE',  ( -0.7499999999999998890, 0.3499999999999999778, -0.3500000000000000333 ) ) ;
#843 = ORIENTED_EDGE ( 'NONE', *, *, #582, .T. ) ;
#844 = FILL_AREA_STYLE_COLOUR ( '', #897 ) ;
#845 = DIRECTION ( 'NONE',  ( 0.000000000000000000, -0.000000000000000000, -1.000000000000000000 ) ) ;
#846 = ORIENTED_EDGE ( 'NONE', *, *, #1266, .T. ) ;
#847 = LINE ( 'NONE', #130, #1204 ) ;
#848 = ORIENTED_EDGE ( 'NONE', *, *, #869, .T. ) ;
#849 = PLANE ( 'NONE',  #995 ) ;
#850 = AXIS2_PLACEMENT_3D ( 'NONE', #1183, #261, #1202 ) ;
#851 = AXIS2_PLACEMENT_3D ( 'NONE', #974, #25, #148 ) ;
#852 = CARTESIAN_POINT ( 'NONE',  ( -0.5000000000000000000, -0.3800000000000000044, 0.3300000000000000155 ) ) ;
#853 = EDGE_CURVE ( 'NONE', #558, #9, #898, .T. ) ;
#854 =( NAMED_UNIT ( * ) SI_UNIT ( $, .STERADIAN. ) SOLID_ANGLE_UNIT ( ) );
#855 = CIRCLE ( 'NONE', #611, 0.05000000000000002359 ) ;
#856 = ORIENTED_EDGE ( 'NONE', *, *, #559, .F. ) ;
#857 = COLOUR_RGB ( '',0.6352941176470587870, 0.2862745098039215508, 0.000000000000000000 ) ;
#858 = VERTEX_POINT ( 'NONE', #543 ) ;
#859 = SURFACE_STYLE_FILL_AREA ( #643 ) ;
#860 = EDGE_CURVE ( 'NONE', #1071, #601, #137, .T. ) ;
#861 = DIRECTION ( 'NONE',  ( 0.000000000000000000, 0.000000000000000000, 1.000000000000000000 ) ) ;
#862 =( NAMED_UNIT ( * ) PLANE_ANGLE_UNIT ( ) SI_UNIT ( $, .RADIAN. ) );
#863 = ORIENTED_EDGE ( 'NONE', *, *, #1214, .F. ) ;
#864 = DIRECTION ( 'NONE',  ( 1.000000000000000000, 0.000000000000000000, -0.000000000000000000 ) ) ;
#865 = ORIENTED_EDGE ( 'NONE', *, *, #117, .T. ) ;
#866 = DIRECTION ( 'NONE',  ( 0.000000000000000000, -1.000000000000000000, 0.000000000000000000 ) ) ;
#867 = AXIS2_PLACEMENT_3D ( 'NONE', #1277, #1079, #260 ) ;
#868 = EDGE_CURVE ( 'NONE', #945, #1318, #116, .T. ) ;
#869 = EDGE_CURVE ( 'NONE', #310, #1058, #664, .T. ) ;
#870 = CARTESIAN_POINT ( 'NONE',  ( -0.5000000000000000000, -0.3499999999999999778, 0.3499999999999999223 ) ) ;
#871 = ORIENTED_EDGE ( 'NONE', *, *, #528, .T. ) ;
#872 = SURFACE_STYLE_FILL_AREA ( #369 ) ;
#873 = VERTEX_POINT ( 'NONE', #548 ) ;
#874 = CARTESIAN_POINT ( 'NONE',  ( 0.7999999999999999334, 0.000000000000000000, -0.3500000000000000333 ) ) ;
#875 = DIRECTION ( 'NONE',  ( -1.000000000000000000, 0.000000000000000000, 0.000000000000000000 ) ) ;
#876 = SURFACE_STYLE_FILL_AREA ( #135 ) ;
#877 = CIRCLE ( 'NONE', #767, 0.05000000000000002359 ) ;
#878 = ORIENTED_EDGE ( 'NONE', *, *, #1023, .F. ) ;
#879 = ADVANCED_FACE ( 'NONE', ( #1332 ), #640, .T. ) ;
#880 = CARTESIAN_POINT ( 'NONE',  ( -0.7499999999999998890, 0.3499999999999999778, 0.3499999999999999223 ) ) ;
#881 = ORIENTED_EDGE ( 'NONE', *, *, #773, .F. ) ;
#882 = CARTESIAN_POINT ( 'NONE',  ( 0.7999999999999999334, 0.000000000000000000, 0.000000000000000000 ) ) ;
#883 = DIRECTION ( 'NONE',  ( 1.000000000000000000, 0.000000000000000000, 0.000000000000000000 ) ) ;
#884 = ORIENTED_EDGE ( 'NONE', *, *, #766, .T. ) ;
#885 = VERTEX_POINT ( 'NONE', #309 ) ;
#886 = CARTESIAN_POINT ( 'NONE',  ( -0.7999999999999999334, 0.3499999999999999778, 0.3499999999999999223 ) ) ;
#887 = CARTESIAN_POINT ( 'NONE',  ( 0.5000000000000000000, -0.3300000000000000155, 0.3300000000000000155 ) ) ;
#888 = DIRECTION ( 'NONE',  ( 0.000000000000000000, 0.000000000000000000, 1.000000000000000000 ) ) ;
#889 = ORIENTED_EDGE ( 'NONE', *, *, #697, .F. ) ;
#890 = PLANE ( 'NONE',  #286 ) ;
#891 = DIRECTION ( 'NONE',  ( -0.000000000000000000, -0.000000000000000000, 1.000000000000000000 ) ) ;
#892 = AXIS2_PLACEMENT_3D ( 'NONE', #882, #460, #169 ) ;
#893 = AXIS2_PLACEMENT_3D ( 'NONE', #103, #79, #1121 ) ;
#894 =( NAMED_UNIT ( * ) PLANE_ANGLE_UNIT ( ) SI_UNIT ( $, .RADIAN. ) );
#895 = DIRECTION ( 'NONE',  ( 0.000000000000000000, -1.000000000000000000, -0.000000000000000000 ) ) ;
#896 = CIRCLE ( 'NONE', #165, 0.05000000000000002359 ) ;
#897 = COLOUR_RGB ( '',0.6352941176470587870, 0.2862745098039215508, 0.000000000000000000 ) ;
#898 = CIRCLE ( 'NONE', #318, 0.05000000000000002359 ) ;
#899 = CARTESIAN_POINT ( 'NONE',  ( 0.7999999999999999334, 0.3499999999999999778, -0.3500000000000000333 ) ) ;
#900 = MECHANICAL_DESIGN_GEOMETRIC_PRESENTATION_REPRESENTATION (  '', ( #613 ), #446 ) ;
#901 = CARTESIAN_POINT ( 'NONE',  ( 0.7999999999999999334, -0.3499999999999999778, -0.3500000000000000333 ) ) ;
#902 = DIRECTION ( 'NONE',  ( -0.000000000000000000, 1.000000000000000000, -0.000000000000000000 ) ) ;
#903 = ORIENTED_EDGE ( 'NONE', *, *, #1248, .T. ) ;
#904 = DIRECTION ( 'NONE',  ( 0.000000000000000000, 1.000000000000000000, -0.000000000000000000 ) ) ;
#905 = DIRECTION ( 'NONE',  ( 0.000000000000000000, 0.000000000000000000, -1.000000000000000000 ) ) ;
#906 = CARTESIAN_POINT ( 'NONE',  ( 0.5000000000000000000, -0.4000000000000000222, -0.4000000000000000777 ) ) ;
#907 = CARTESIAN_POINT ( 'NONE',  ( 0.7499999999999998890, -0.3499999999999999778, 0.3499999999999999223 ) ) ;
#908 = ADVANCED_FACE ( 'NONE', ( #110 ), #818, .T. ) ;
#909 = CARTESIAN_POINT ( 'NONE',  ( 0.5000000000000000000, 0.3499999999999999778, -0.4000000000000000777 ) ) ;
#910 = ADVANCED_FACE ( 'NONE', ( #1243 ), #1127, .T. ) ;
#911 = CIRCLE ( 'NONE', #331, 0.05000000000000002359 ) ;
#912 = VERTEX_POINT ( 'NONE', #729 ) ;
#913 = FACE_OUTER_BOUND ( 'NONE', #85, .T. ) ;
#914 = CARTESIAN_POINT ( 'NONE',  ( 0.5000000000000000000, 0.3499999999999999778, 0.3999999999999999667 ) ) ;
#915 = ORIENTED_EDGE ( 'NONE', *, *, #114, .T. ) ;
#916 = AXIS2_PLACEMENT_3D ( 'NONE', #38, #1076, #346 ) ;
#917 = CARTESIAN_POINT ( 'NONE',  ( -0.7999999999999999334, -0.4000000000000000222, -0.4000000000000000777 ) ) ;
#918 = EDGE_LOOP ( 'NONE', ( #1235, #419, #616, #565 ) ) ;
#919 = DIRECTION ( 'NONE',  ( 0.000000000000000000, 0.000000000000000000, 1.000000000000000000 ) ) ;
#920 = ORIENTED_EDGE ( 'NONE', *, *, #1158, .T. ) ;
#921 = SURFACE_SIDE_STYLE ('',( #82 ) ) ;
#922 = UNCERTAINTY_MEASURE_WITH_UNIT (LENGTH_MEASURE( 1.000000000000000082E-05 ), #274, 'distance_accuracy_value', 'NONE');
#923 = DIRECTION ( 'NONE',  ( 0.000000000000000000, 0.000000000000000000, 1.000000000000000000 ) ) ;
#924 = CARTESIAN_POINT ( 'NONE',  ( -0.7499999999999998890, 0.3499999999999999778, 0.3999999999999999667 ) ) ;
#925 = ADVANCED_FACE ( 'NONE', ( #123 ), #519, .T. ) ;
#926 = CIRCLE ( 'NONE', #521, 0.05000000000000002359 ) ;
#927 = ORIENTED_EDGE ( 'NONE', *, *, #574, .F. ) ;
#928 = DIRECTION ( 'NONE',  ( 0.000000000000000000, 0.000000000000000000, -1.000000000000000000 ) ) ;
#929 = ADVANCED_FACE ( 'NONE', ( #212 ), #779, .T. ) ;
#930 = ORIENTED_EDGE ( 'NONE', *, *, #488, .T. ) ;
#931 = SURFACE_SIDE_STYLE ('',( #859 ) ) ;
#932 = CARTESIAN_POINT ( 'NONE',  ( -0.5000000000000000000, -0.3499999999999999778, 0.3999999999999999667 ) ) ;
#933 = DIRECTION ( 'NONE',  ( -1.000000000000000000, 0.000000000000000000, 0.000000000000000000 ) ) ;
#934 = ORIENTED_EDGE ( 'NONE', *, *, #808, .T. ) ;
#935 = CARTESIAN_POINT ( 'NONE',  ( 0.7499999999999998890, 0.3499999999999999778, 0.3499999999999999223 ) ) ;
#936 = VECTOR ( 'NONE', #406, 1000.000000000000000 ) ;
#937 = ADVANCED_FACE ( 'NONE', ( #428 ), #967, .T. ) ;
#938 = ORIENTED_EDGE ( 'NONE', *, *, #475, .F. ) ;
#939 = PLANE ( 'NONE',  #134 ) ;
#940 = MANIFOLD_SOLID_BREP ( 'Fillet1', #590 ) ;
#941 = DIRECTION ( 'NONE',  ( 0.000000000000000000, 1.000000000000000000, -0.000000000000000000 ) ) ;
#942 = PLANE ( 'NONE',  #1129 ) ;
#943 = VERTEX_POINT ( 'NONE', #1271 ) ;
#944 = CARTESIAN_POINT ( 'NONE',  ( 0.7499999999999998890, -0.3499999999999999778, -0.4000000000000000777 ) ) ;
#945 = VERTEX_POINT ( 'NONE', #1185 ) ;
#946 =( NAMED_UNIT ( * ) PLANE_ANGLE_UNIT ( ) SI_UNIT ( $, .RADIAN. ) );
#947 = CARTESIAN_POINT ( 'NONE',  ( 0.7499999999999998890, -0.4000000000000000222, -0.4000000000000000777 ) ) ;
#948 = LINE ( 'NONE', #734, #790 ) ;
#949 = ORIENTED_EDGE ( 'NONE', *, *, #717, .F. ) ;
#950 = CARTESIAN_POINT ( 'NONE',  ( 0.7999999999999999334, 0.3499999999999999778, -0.3500000000000000333 ) ) ;
#951 = ORIENTED_EDGE ( 'NONE', *, *, #1047, .T. ) ;
#952 = CARTESIAN_POINT ( 'NONE',  ( 0.7499999999999998890, -0.3499999999999999778, -0.3500000000000000333 ) ) ;
#953 = EDGE_CURVE ( 'NONE', #1126, #591, #896, .T. ) ;
#954 = DIRECTION ( 'NONE',  ( 1.000000000000000000, 0.000000000000000000, 0.000000000000000000 ) ) ;
#955 = EDGE_CURVE ( 'NONE', #464, #999, #570, .T. ) ;
#956 = LINE ( 'NONE', #237, #771 ) ;
#957 = EDGE_LOOP ( 'NONE', ( #1331, #553, #171, #927 ) ) ;
#958 = DIRECTION ( 'NONE',  ( 0.000000000000000000, 0.000000000000000000, -1.000000000000000000 ) ) ;
#959 = ORIENTED_EDGE ( 'NONE', *, *, #853, .F. ) ;
#960 = CARTESIAN_POINT ( 'NONE',  ( 0.5000000000000000000, -0.3300000000000000155, -0.3300000000000000155 ) ) ;
#961 = AXIS2_PLACEMENT_3D ( 'NONE', #580, #43, #164 ) ;
#962 = VECTOR ( 'NONE', #1111, 1000.000000000000000 ) ;
#963 = FACE_OUTER_BOUND ( 'NONE', #918, .T. ) ;
#964 = AXIS2_PLACEMENT_3D ( 'NONE', #1255, #19, #315 ) ;
#965 = DIRECTION ( 'NONE',  ( 0.000000000000000000, 0.000000000000000000, -1.000000000000000000 ) ) ;
#966 = ORIENTED_EDGE ( 'NONE', *, *, #689, .T. ) ;
#967 = PLANE ( 'NONE',  #462 ) ;
#968 = PRESENTATION_LAYER_ASSIGNMENT (  '', '', ( #809 ) ) ;
#969 = ADVANCED_FACE ( 'NONE', ( #263 ), #564, .T. ) ;
#970 = LINE ( 'NONE', #371, #416 ) ;
#971 = DIRECTION ( 'NONE',  ( 0.000000000000000000, 0.000000000000000000, 1.000000000000000000 ) ) ;
#972 = DIRECTION ( 'NONE',  ( 1.000000000000000000, 0.000000000000000000, 0.000000000000000000 ) ) ;
#973 = ORIENTED_EDGE ( 'NONE', *, *, #1280, .F. ) ;
#974 = CARTESIAN_POINT ( 'NONE',  ( -0.7499999999999998890, -0.3499999999999999778, -0.3500000000000000333 ) ) ;
#975 = EDGE_CURVE ( 'NONE', #558, #794, #1212, .T. ) ;
#976 = ORIENTED_EDGE ( 'NONE', *, *, #44, .F. ) ;
#977 = DIRECTION ( 'NONE',  ( 0.000000000000000000, 0.000000000000000000, -1.000000000000000000 ) ) ;
#978 = AXIS2_PLACEMENT_3D ( 'NONE', #607, #285, #812 ) ;
#979 = CARTESIAN_POINT ( 'NONE',  ( 0.7499999999999998890, 0.3499999999999999778, 0.3999999999999999667 ) ) ;
#980 = CARTESIAN_POINT ( 'NONE',  ( -0.7999999999999999334, -0.3499999999999999778, 0.3499999999999999223 ) ) ;
#981 = VERTEX_POINT ( 'NONE', #776 ) ;
#982 = DIRECTION ( 'NONE',  ( 0.000000000000000000, 0.000000000000000000, 1.000000000000000000 ) ) ;
#983 = EDGE_LOOP ( 'NONE', ( #1174, #434, #1045, #761 ) ) ;
#984 = CARTESIAN_POINT ( 'NONE',  ( -0.7499999999999998890, -0.4000000000000000222, 0.3499999999999999223 ) ) ;
#985 = CARTESIAN_POINT ( 'NONE',  ( -0.5000000000000000000, 0.3499999999999999778, -0.4000000000000000777 ) ) ;
#986 = CARTESIAN_POINT ( 'NONE',  ( 0.7999999999999999334, -0.4000000000000000222, 0.3499999999999999223 ) ) ;
#987 = PRESENTATION_LAYER_ASSIGNMENT (  '', '', ( #1109 ) ) ;
#988 = PRESENTATION_STYLE_ASSIGNMENT (( #769 ) ) ;
#989 = VECTOR ( 'NONE', #815, 1000.000000000000000 ) ;
#990 = CARTESIAN_POINT ( 'NONE',  ( 0.5000000000000000000, 0.3499999999999999778, -0.3500000000000000333 ) ) ;
#991 = APPLICATION_PROTOCOL_DEFINITION ( 'draft international standard', 'automotive_design', 1998, #213 ) ;
#992 = FILL_AREA_STYLE ('',( #1219 ) ) ;
#993 = ORIENTED_EDGE ( 'NONE', *, *, #1249, .T. ) ;
#994 = DIRECTION ( 'NONE',  ( 0.000000000000000000, 0.000000000000000000, 1.000000000000000000 ) ) ;
#995 = AXIS2_PLACEMENT_3D ( 'NONE', #1148, #234, #829 ) ;
#996 = EDGE_CURVE ( 'NONE', #1026, #822, #877, .T. ) ;
#997 = VECTOR ( 'NONE', #1102, 1000.000000000000000 ) ;
#998 = CARTESIAN_POINT ( 'NONE',  ( 0.5000000000000000000, -0.3300000000000000155, -0.3800000000000000044 ) ) ;
#999 = VERTEX_POINT ( 'NONE', #793 ) ;
#1000 = CARTESIAN_POINT ( 'NONE',  ( -0.5000000000000000000, 0.3499999999999999778, 0.3999999999999999667 ) ) ;
#1001 = CARTESIAN_POINT ( 'NONE',  ( 0.7999999999999999334, -0.4000000000000000222, -0.4000000000000000777 ) ) ;
#1002 = VECTOR ( 'NONE', #481, 1000.000000000000000 ) ;
#1003 = DIRECTION ( 'NONE',  ( 0.000000000000000000, 0.000000000000000000, 1.000000000000000000 ) ) ;
#1004 = ORIENTED_EDGE ( 'NONE', *, *, #1132, .F. ) ;
#1005 = CARTESIAN_POINT ( 'NONE',  ( 0.7499999999999998890, 0.3499999999999999778, -0.3500000000000000333 ) ) ;
#1006 = VECTOR ( 'NONE', #743, 1000.000000000000000 ) ;
#1007 = ADVANCED_FACE ( 'NONE', ( #183 ), #90, .T. ) ;
#1008 = AXIS2_PLACEMENT_3D ( 'NONE', #1141, #1146, #526 ) ;
#1009 = DIRECTION ( 'NONE',  ( 0.000000000000000000, 0.000000000000000000, -1.000000000000000000 ) ) ;
#1010 = ORIENTED_EDGE ( 'NONE', *, *, #70, .T. ) ;
#1011 = CARTESIAN_POINT ( 'NONE',  ( 0.7499999999999998890, -0.4000000000000000222, 0.3999999999999999667 ) ) ;
#1012 = ORIENTED_EDGE ( 'NONE', *, *, #156, .T. ) ;
#1013 = CYLINDRICAL_SURFACE ( 'NONE', #454, 0.05000000000000002359 ) ;
#1014 = EDGE_CURVE ( 'NONE', #1040, #912, #692, .T. ) ;
#1015 = EDGE_CURVE ( 'NONE', #115, #464, #1018, .T. ) ;
#1016 = PLANE ( 'NONE',  #587 ) ;
#1017 = CARTESIAN_POINT ( 'NONE',  ( 0.5000000000000000000, -0.3800000000000000044, -0.3300000000000000155 ) ) ;
#1018 = LINE ( 'NONE', #998, #744 ) ;
#1019 = ORIENTED_EDGE ( 'NONE', *, *, #50, .T. ) ;
#1020 = DIRECTION ( 'NONE',  ( 1.000000000000000000, 0.000000000000000000, -0.000000000000000000 ) ) ;
#1021 = CARTESIAN_POINT ( 'NONE',  ( 0.5000000000000000000, -0.3800000000000000044, -0.3800000000000000044 ) ) ;
#1022 = LINE ( 'NONE', #96, #467 ) ;
#1023 = EDGE_CURVE ( 'NONE', #1126, #558, #578, .T. ) ;
#1024 = CARTESIAN_POINT ( 'NONE',  ( 0.5000000000000000000, -0.3499999999999999778, -0.4000000000000000777 ) ) ;
#1025 =( GEOMETRIC_REPRESENTATION_CONTEXT ( 3 ) GLOBAL_UNCERTAINTY_ASSIGNED_CONTEXT ( ( #708 ) ) GLOBAL_UNIT_ASSIGNED_CONTEXT ( ( #254, #473, #1293 ) ) REPRESENTATION_CONTEXT ( 'NONE', 'WORKASPACE' ) );
#1026 = VERTEX_POINT ( 'NONE', #375 ) ;
#1027 = CARTESIAN_POINT ( 'NONE',  ( 0.5000000000000000000, 0.3499999999999999778, 0.3499999999999999223 ) ) ;
#1028 =( GEOMETRIC_REPRESENTATION_CONTEXT ( 3 ) GLOBAL_UNCERTAINTY_ASSIGNED_CONTEXT ( ( #194 ) ) GLOBAL_UNIT_ASSIGNED_CONTEXT ( ( #348, #1175, #155 ) ) REPRESENTATION_CONTEXT ( 'NONE', 'WORKASPACE' ) );
#1029 = FACE_OUTER_BOUND ( 'NONE', #388, .T. ) ;
#1030 = CIRCLE ( 'NONE', #441, 0.05000000000000002359 ) ;
#1031 = DIRECTION ( 'NONE',  ( -1.000000000000000000, -0.000000000000000000, -0.000000000000000000 ) ) ;
#1032 = VECTOR ( 'NONE', #1062, 1000.000000000000000 ) ;
#1033 = DIRECTION ( 'NONE',  ( -1.000000000000000000, -0.000000000000000000, -0.000000000000000000 ) ) ;
#1034 = EDGE_CURVE ( 'NONE', #768, #310, #299, .T. ) ;
#1035 = ORIENTED_EDGE ( 'NONE', *, *, #273, .F. ) ;
#1036 = DIRECTION ( 'NONE',  ( 0.000000000000000000, 1.000000000000000000, 0.000000000000000000 ) ) ;
#1037 = LINE ( 'NONE', #703, #11 ) ;
#1038 = FILL_AREA_STYLE_COLOUR ( '', #857 ) ;
#1039 = ORIENTED_EDGE ( 'NONE', *, *, #1280, .T. ) ;
#1040 = VERTEX_POINT ( 'NONE', #479 ) ;
#1041 = DIRECTION ( 'NONE',  ( 1.000000000000000000, -0.000000000000000000, 0.000000000000000000 ) ) ;
#1042 = LINE ( 'NONE', #332, #29 ) ;
#1043 = ORIENTED_EDGE ( 'NONE', *, *, #243, .T. ) ;
#1044 = CARTESIAN_POINT ( 'NONE',  ( -0.5000000000000000000, 0.4000000000000000222, 0.3999999999999999667 ) ) ;
#1045 = ORIENTED_EDGE ( 'NONE', *, *, #73, .F. ) ;
#1046 = CARTESIAN_POINT ( 'NONE',  ( 0.7499999999999998890, -0.3499999999999999778, 0.3499999999999999223 ) ) ;
#1047 = EDGE_CURVE ( 'NONE', #1058, #221, #810, .T. ) ;
#1048 = VECTOR ( 'NONE', #471, 1000.000000000000000 ) ;
#1049 = CARTESIAN_POINT ( 'NONE',  ( -0.7499999999999998890, -0.3499999999999999778, 0.3499999999999999223 ) ) ;
#1050 = CARTESIAN_POINT ( 'NONE',  ( 0.5000000000000000000, 0.3800000000000000044, 0.3300000000000000155 ) ) ;
#1051 = VERTEX_POINT ( 'NONE', #1108 ) ;
#1052 = DIRECTION ( 'NONE',  ( 0.000000000000000000, 1.000000000000000000, 0.000000000000000000 ) ) ;
#1053 = ADVANCED_FACE ( 'NONE', ( #502 ), #382, .T. ) ;
#1054 =( LENGTH_UNIT ( ) NAMED_UNIT ( * ) SI_UNIT ( .MILLI., .METRE. ) );
#1055 = DIRECTION ( 'NONE',  ( 0.000000000000000000, 0.000000000000000000, 1.000000000000000000 ) ) ;
#1056 = DIRECTION ( 'NONE',  ( 0.000000000000000000, -0.000000000000000000, -1.000000000000000000 ) ) ;
#1057 = CIRCLE ( 'NONE', #1223, 0.05000000000000002359 ) ;
#1058 = VERTEX_POINT ( 'NONE', #77 ) ;
#1059 = CARTESIAN_POINT ( 'NONE',  ( 0.5000000000000000000, -0.3800000000000000044, 0.3800000000000000044 ) ) ;
#1060 = LINE ( 'NONE', #738, #478 ) ;
#1061 = CARTESIAN_POINT ( 'NONE',  ( 0.7499999999999998890, -0.4000000000000000222, 0.3999999999999999667 ) ) ;
#1062 = DIRECTION ( 'NONE',  ( -1.000000000000000000, 0.000000000000000000, 0.000000000000000000 ) ) ;
#1063 = ORIENTED_EDGE ( 'NONE', *, *, #391, .T. ) ;
#1064 = CARTESIAN_POINT ( 'NONE',  ( -0.5000000000000000000, -0.3800000000000000044, -0.3800000000000000044 ) ) ;
#1065 = CARTESIAN_POINT ( 'NONE',  ( 0.5000000000000000000, -0.3800000000000000044, 0.3300000000000000155 ) ) ;
#1066 = VECTOR ( 'NONE', #360, 1000.000000000000000 ) ;
#1067 = AXIS2_PLACEMENT_3D ( 'NONE', #907, #1020, #795 ) ;
#1068 = DIRECTION ( 'NONE',  ( 0.000000000000000000, 0.000000000000000000, -1.000000000000000000 ) ) ;
#1069 = DIRECTION ( 'NONE',  ( -0.000000000000000000, -0.000000000000000000, 1.000000000000000000 ) ) ;
#1070 = AXIS2_PLACEMENT_3D ( 'NONE', #837, #1257, #631 ) ;
#1071 = VERTEX_POINT ( 'NONE', #492 ) ;
#1072 = EDGE_CURVE ( 'NONE', #1270, #257, #1321, .T. ) ;
#1073 = AXIS2_PLACEMENT_3D ( 'NONE', #760, #242, #1263 ) ;
#1074 = PRESENTATION_STYLE_ASSIGNMENT (( #571 ) ) ;
#1075 = DIRECTION ( 'NONE',  ( 1.000000000000000000, 0.000000000000000000, 0.000000000000000000 ) ) ;
#1076 = DIRECTION ( 'NONE',  ( 0.000000000000000000, -1.000000000000000000, 0.000000000000000000 ) ) ;
#1077 = ORIENTED_EDGE ( 'NONE', *, *, #311, .T. ) ;
#1078 = EDGE_LOOP ( 'NONE', ( #358, #1019, #1167, #871 ) ) ;
#1079 = DIRECTION ( 'NONE',  ( 1.000000000000000000, 0.000000000000000000, 0.000000000000000000 ) ) ;
#1080 = FACE_OUTER_BOUND ( 'NONE', #1251, .T. ) ;
#1081 = CARTESIAN_POINT ( 'NONE',  ( 0.7499999999999998890, 0.3499999999999999778, -0.4000000000000000777 ) ) ;
#1082 = ORIENTED_EDGE ( 'NONE', *, *, #1198, .F. ) ;
#1083 = DIRECTION ( 'NONE',  ( 1.000000000000000000, 0.000000000000000000, 0.000000000000000000 ) ) ;
#1084 = ORIENTED_EDGE ( 'NONE', *, *, #536, .F. ) ;
#1085 = DIRECTION ( 'NONE',  ( 0.000000000000000000, 0.000000000000000000, 1.000000000000000000 ) ) ;
#1086 = CYLINDRICAL_SURFACE ( 'NONE', #264, 0.05000000000000002359 ) ;
#1087 = VECTOR ( 'NONE', #506, 1000.000000000000000 ) ;
#1088 = VECTOR ( 'NONE', #201, 1000.000000000000000 ) ;
#1089 = VECTOR ( 'NONE', #751, 1000.000000000000000 ) ;
#1090 = DIRECTION ( 'NONE',  ( 0.000000000000000000, 0.000000000000000000, 1.000000000000000000 ) ) ;
#1091 = ORIENTED_EDGE ( 'NONE', *, *, #628, .F. ) ;
#1092 = EDGE_CURVE ( 'NONE', #323, #981, #1308, .T. ) ;
#1093 = DIRECTION ( 'NONE',  ( 1.000000000000000000, -0.000000000000000000, -0.000000000000000000 ) ) ;
#1094 = CARTESIAN_POINT ( 'NONE',  ( -0.7499999999999998890, 0.3499999999999999778, -0.3500000000000000333 ) ) ;
#1095 = PRESENTATION_STYLE_ASSIGNMENT (( #1193 ) ) ;
#1096 = EDGE_LOOP ( 'NONE', ( #667, #443, #1116, #542 ) ) ;
#1097 = DIRECTION ( 'NONE',  ( 0.000000000000000000, 1.000000000000000000, 0.000000000000000000 ) ) ;
#1098 = AXIS2_PLACEMENT_3D ( 'NONE', #385, #796, #125 ) ;
#1099 = AXIS2_PLACEMENT_3D ( 'NONE', #713, #904, #603 ) ;
#1100 = ADVANCED_FACE ( 'NONE', ( #1313 ), #592, .T. ) ;
#1101 = ORIENTED_EDGE ( 'NONE', *, *, #109, .T. ) ;
#1102 = DIRECTION ( 'NONE',  ( 1.000000000000000000, -0.000000000000000000, 0.000000000000000000 ) ) ;
#1103 = CARTESIAN_POINT ( 'NONE',  ( -0.5000000000000000000, 0.3800000000000000044, 0.3300000000000000155 ) ) ;
#1104 = ORIENTED_EDGE ( 'NONE', *, *, #1266, .F. ) ;
#1105 = SHAPE_DEFINITION_REPRESENTATION ( #1205, #445 ) ;
#1106 = MECHANICAL_DESIGN_GEOMETRIC_PRESENTATION_REPRESENTATION (  '', ( #680 ), #5 ) ;
#1107 = EDGE_CURVE ( 'NONE', #1071, #1051, #1115, .T. ) ;
#1108 = CARTESIAN_POINT ( 'NONE',  ( -0.7499999999999998890, 0.4000000000000000222, -0.3500000000000000333 ) ) ;
#1109 = STYLED_ITEM ( 'NONE', ( #988 ), #969 ) ;
#1110 = ORIENTED_EDGE ( 'NONE', *, *, #733, .F. ) ;
#1111 = DIRECTION ( 'NONE',  ( -0.000000000000000000, -1.000000000000000000, -0.000000000000000000 ) ) ;
#1112 =( LENGTH_UNIT ( ) NAMED_UNIT ( * ) SI_UNIT ( .MILLI., .METRE. ) );
#1113 = VECTOR ( 'NONE', #1231, 1000.000000000000000 ) ;
#1114 = ORIENTED_EDGE ( 'NONE', *, *, #250, .T. ) ;
#1115 = LINE ( 'NONE', #188, #804 ) ;
#1116 = ORIENTED_EDGE ( 'NONE', *, *, #433, .F. ) ;
#1117 = DIRECTION ( 'NONE',  ( -1.000000000000000000, 0.000000000000000000, 0.000000000000000000 ) ) ;
#1118 = CARTESIAN_POINT ( 'NONE',  ( 0.7999999999999999334, 0.3499999999999999778, 0.3499999999999999223 ) ) ;
#1119 = DIRECTION ( 'NONE',  ( 1.000000000000000000, 0.000000000000000000, 0.000000000000000000 ) ) ;
#1120 = ORIENTED_EDGE ( 'NONE', *, *, #282, .T. ) ;
#1121 = DIRECTION ( 'NONE',  ( 1.000000000000000000, 0.000000000000000000, 0.000000000000000000 ) ) ;
#1122 = UNCERTAINTY_MEASURE_WITH_UNIT (LENGTH_MEASURE( 1.000000000000000082E-05 ), #1320, 'distance_accuracy_value', 'NONE');
#1123 = EDGE_LOOP ( 'NONE', ( #1035, #841, #122, #938 ) ) ;
#1124 = DIRECTION ( 'NONE',  ( 0.000000000000000000, 0.000000000000000000, -1.000000000000000000 ) ) ;
#1125 = CIRCLE ( 'NONE', #143, 0.05000000000000002359 ) ;
#1126 = VERTEX_POINT ( 'NONE', #511 ) ;
#1127 = SPHERICAL_SURFACE ( 'NONE', #487, 0.05000000000000000278 ) ;
#1128 = ORIENTED_EDGE ( 'NONE', *, *, #582, .F. ) ;
#1129 = AXIS2_PLACEMENT_3D ( 'NONE', #917, #1124, #432 ) ;
#1130 = MECHANICAL_DESIGN_GEOMETRIC_PRESENTATION_REPRESENTATION (  '', ( #202 ), #316 ) ;
#1131 = ORIENTED_EDGE ( 'NONE', *, *, #117, .F. ) ;
#1132 = EDGE_CURVE ( 'NONE', #696, #768, #218, .T. ) ;
#1133 = DIRECTION ( 'NONE',  ( 0.000000000000000000, 0.000000000000000000, 1.000000000000000000 ) ) ;
#1134 = ORIENTED_EDGE ( 'NONE', *, *, #1034, .F. ) ;
#1135 = DIRECTION ( 'NONE',  ( -1.000000000000000000, 0.000000000000000000, 0.000000000000000000 ) ) ;
#1136 = VERTEX_POINT ( 'NONE', #1024 ) ;
#1137 = FACE_OUTER_BOUND ( 'NONE', #547, .T. ) ;
#1138 = CARTESIAN_POINT ( 'NONE',  ( -0.5000000000000000000, 0.3499999999999999778, -0.3500000000000000333 ) ) ;
#1139 = CARTESIAN_POINT ( 'NONE',  ( 0.7999999999999999334, 0.4000000000000000222, -0.3500000000000000333 ) ) ;
#1140 = STYLED_ITEM ( 'NONE', ( #742 ), #452 ) ;
#1141 = CARTESIAN_POINT ( 'NONE',  ( 0.7999999999999999334, -0.4000000000000000222, 0.3999999999999999667 ) ) ;
#1142 = ORIENTED_EDGE ( 'NONE', *, *, #149, .T. ) ;
#1143 = CARTESIAN_POINT ( 'NONE',  ( -0.5000000000000000000, -0.3300000000000000155, 0.3300000000000000155 ) ) ;
#1144 = EDGE_CURVE ( 'NONE', #718, #794, #1042, .T. ) ;
#1145 = ORIENTED_EDGE ( 'NONE', *, *, #1226, .F. ) ;
#1146 = DIRECTION ( 'NONE',  ( 0.000000000000000000, 0.000000000000000000, -1.000000000000000000 ) ) ;
#1147 = VECTOR ( 'NONE', #1334, 1000.000000000000000 ) ;
#1148 = CARTESIAN_POINT ( 'NONE',  ( 0.5000000000000000000, -0.3800000000000000044, 0.3800000000000000044 ) ) ;
#1149 = VECTOR ( 'NONE', #597, 1000.000000000000000 ) ;
#1150 = FACE_OUTER_BOUND ( 'NONE', #24, .T. ) ;
#1151 = FACE_OUTER_BOUND ( 'NONE', #1096, .T. ) ;
#1152 = VECTOR ( 'NONE', #652, 1000.000000000000000 ) ;
#1153 = ORIENTED_EDGE ( 'NONE', *, *, #311, .F. ) ;
#1154 = CARTESIAN_POINT ( 'NONE',  ( -0.7499999999999998890, -0.3499999999999999778, 0.3999999999999999667 ) ) ;
#1155 = ORIENTED_EDGE ( 'NONE', *, *, #1158, .F. ) ;
#1156 = CARTESIAN_POINT ( 'NONE',  ( -0.5000000000000000000, -0.3300000000000000155, -0.3800000000000000044 ) ) ;
#1157 = LINE ( 'NONE', #31, #1006 ) ;
#1158 = EDGE_CURVE ( 'NONE', #558, #1058, #948, .T. ) ;
#1159 = LINE ( 'NONE', #230, #792 ) ;
#1160 = ORIENTED_EDGE ( 'NONE', *, *, #869, .F. ) ;
#1161 = DIRECTION ( 'NONE',  ( 0.000000000000000000, 0.000000000000000000, 1.000000000000000000 ) ) ;
#1162 = DIRECTION ( 'NONE',  ( -1.000000000000000000, -0.000000000000000000, -0.000000000000000000 ) ) ;
#1163 = ADVANCED_FACE ( 'NONE', ( #726 ), #107, .F. ) ;
#1164 = LINE ( 'NONE', #947, #510 ) ;
#1165 = LINE ( 'NONE', #353, #1196 ) ;
#1166 = ADVANCED_FACE ( 'NONE', ( #403 ), #942, .T. ) ;
#1167 = ORIENTED_EDGE ( 'NONE', *, *, #559, .T. ) ;
#1168 = CARTESIAN_POINT ( 'NONE',  ( 0.5000000000000000000, 0.3300000000000000155, -0.3300000000000000155 ) ) ;
#1169 = ORIENTED_EDGE ( 'NONE', *, *, #551, .F. ) ;
#1170 = CARTESIAN_POINT ( 'NONE',  ( 0.5000000000000000000, 0.4000000000000000222, -0.3500000000000000333 ) ) ;
#1171 = AXIS2_PLACEMENT_3D ( 'NONE', #990, #61, #474 ) ;
#1172 = COLOUR_RGB ( '',0.6352941176470587870, 0.2862745098039215508, 0.000000000000000000 ) ;
#1173 = DIRECTION ( 'NONE',  ( 0.000000000000000000, 0.000000000000000000, 1.000000000000000000 ) ) ;
#1174 = ORIENTED_EDGE ( 'NONE', *, *, #711, .F. ) ;
#1175 =( NAMED_UNIT ( * ) PLANE_ANGLE_UNIT ( ) SI_UNIT ( $, .RADIAN. ) );
#1176 = VECTOR ( 'NONE', #933, 1000.000000000000000 ) ;
#1177 = FILL_AREA_STYLE_COLOUR ( '', #1172 ) ;
#1178 = CYLINDRICAL_SURFACE ( 'NONE', #657, 0.05000000000000002359 ) ;
#1179 =( LENGTH_UNIT ( ) NAMED_UNIT ( * ) SI_UNIT ( .MILLI., .METRE. ) );
#1180 = ORIENTED_EDGE ( 'NONE', *, *, #50, .F. ) ;
#1181 = ORIENTED_EDGE ( 'NONE', *, *, #273, .T. ) ;
#1182 = DIRECTION ( 'NONE',  ( 0.000000000000000000, -0.000000000000000000, 1.000000000000000000 ) ) ;
#1183 = CARTESIAN_POINT ( 'NONE',  ( 0.5000000000000000000, -0.3499999999999999778, 0.3499999999999999223 ) ) ;
#1184 = EDGE_LOOP ( 'NONE', ( #799, #535, #677 ) ) ;
#1185 = CARTESIAN_POINT ( 'NONE',  ( 0.5000000000000000000, -0.3800000000000000044, 0.3300000000000000155 ) ) ;
#1186 = ORIENTED_EDGE ( 'NONE', *, *, #139, .F. ) ;
#1187 = DIRECTION ( 'NONE',  ( -1.000000000000000000, -0.000000000000000000, -0.000000000000000000 ) ) ;
#1188 = AXIS2_PLACEMENT_3D ( 'NONE', #1094, #365, #69 ) ;
#1189 = CIRCLE ( 'NONE', #606, 0.05000000000000002359 ) ;
#1190 = PRODUCT_CONTEXT ( 'NONE', #213, 'mechanical' ) ;
#1191 =( GEOMETRIC_REPRESENTATION_CONTEXT ( 3 ) GLOBAL_UNCERTAINTY_ASSIGNED_CONTEXT ( ( #922 ) ) GLOBAL_UNIT_ASSIGNED_CONTEXT ( ( #274, #894, #1304 ) ) REPRESENTATION_CONTEXT ( 'NONE', 'WORKASPACE' ) );
#1192 = VECTOR ( 'NONE', #344, 1000.000000000000000 ) ;
#1193 = SURFACE_STYLE_USAGE ( .BOTH. , #482 ) ;
#1194 = EDGE_LOOP ( 'NONE', ( #1077, #848, #973 ) ) ;
#1195 = CARTESIAN_POINT ( 'NONE',  ( -0.7499999999999998890, -0.3499999999999999778, -0.4000000000000000777 ) ) ;
#1196 = VECTOR ( 'NONE', #161, 1000.000000000000000 ) ;
#1197 = CARTESIAN_POINT ( 'NONE',  ( 0.5000000000000000000, -0.3300000000000000155, 0.3300000000000000155 ) ) ;
#1198 = EDGE_CURVE ( 'NONE', #376, #746, #98, .T. ) ;
#1199 = EDGE_CURVE ( 'NONE', #591, #788, #1302, .T. ) ;
#1200 = ORIENTED_EDGE ( 'NONE', *, *, #773, .T. ) ;
#1201 = CARTESIAN_POINT ( 'NONE',  ( -0.5000000000000000000, -0.3499999999999999778, -0.3500000000000000333 ) ) ;
#1202 = DIRECTION ( 'NONE',  ( 0.000000000000000000, 0.000000000000000000, 1.000000000000000000 ) ) ;
#1203 = ADVANCED_FACE ( 'NONE', ( #612 ), #1330, .T. ) ;
#1204 = VECTOR ( 'NONE', #736, 1000.000000000000000 ) ;
#1205 = PRODUCT_DEFINITION_SHAPE ( 'NONE', 'NONE',  #95 ) ;
#1206 = DIRECTION ( 'NONE',  ( 0.000000000000000000, -1.000000000000000000, 0.000000000000000000 ) ) ;
#1207 = ORIENTED_EDGE ( 'NONE', *, *, #80, .F. ) ;
#1208 = LINE ( 'NONE', #1305, #485 ) ;
#1209 = CARTESIAN_POINT ( 'NONE',  ( 0.7999999999999999334, 0.3499999999999999778, 0.3999999999999999667 ) ) ;
#1210 = ORIENTED_EDGE ( 'NONE', *, *, #99, .F. ) ;
#1211 = DIRECTION ( 'NONE',  ( -0.000000000000000000, 1.000000000000000000, -0.000000000000000000 ) ) ;
#1212 = CIRCLE ( 'NONE', #8, 0.05000000000000002359 ) ;
#1213 = AXIS2_PLACEMENT_3D ( 'NONE', #716, #12, #954 ) ;
#1214 = EDGE_CURVE ( 'NONE', #885, #1270, #4, .T. ) ;
#1215 = DIRECTION ( 'NONE',  ( 1.000000000000000000, 0.000000000000000000, 0.000000000000000000 ) ) ;
#1216 = CARTESIAN_POINT ( 'NONE',  ( 0.5000000000000000000, -0.4000000000000000222, 0.3499999999999999223 ) ) ;
#1217 = PRESENTATION_LAYER_ASSIGNMENT (  '', '', ( #613 ) ) ;
#1218 = DIRECTION ( 'NONE',  ( 0.000000000000000000, 1.000000000000000000, 0.000000000000000000 ) ) ;
#1219 = FILL_AREA_STYLE_COLOUR ( '', #397 ) ;
#1220 = DIRECTION ( 'NONE',  ( 0.000000000000000000, 0.000000000000000000, -1.000000000000000000 ) ) ;
#1221 = FACE_OUTER_BOUND ( 'NONE', #525, .T. ) ;
#1222 = EDGE_CURVE ( 'NONE', #283, #593, #210, .T. ) ;
#1223 = AXIS2_PLACEMENT_3D ( 'NONE', #960, #28, #413 ) ;
#1224 = ORIENTED_EDGE ( 'NONE', *, *, #1034, .T. ) ;
#1225 = DIRECTION ( 'NONE',  ( 0.000000000000000000, 0.000000000000000000, -1.000000000000000000 ) ) ;
#1226 = EDGE_CURVE ( 'NONE', #108, #873, #13, .T. ) ;
#1227 = VERTEX_POINT ( 'NONE', #1050 ) ;
#1228 = DIRECTION ( 'NONE',  ( 0.000000000000000000, 1.000000000000000000, 0.000000000000000000 ) ) ;
#1229 = ORIENTED_EDGE ( 'NONE', *, *, #1222, .T. ) ;
#1230 = ORIENTED_EDGE ( 'NONE', *, *, #868, .F. ) ;
#1231 = DIRECTION ( 'NONE',  ( 1.000000000000000000, -0.000000000000000000, -0.000000000000000000 ) ) ;
#1232 = VECTOR ( 'NONE', #655, 1000.000000000000000 ) ;
#1233 = EDGE_LOOP ( 'NONE', ( #83, #920, #951, #1043 ) ) ;
#1234 = DIRECTION ( 'NONE',  ( 0.000000000000000000, 0.000000000000000000, 1.000000000000000000 ) ) ;
#1235 = ORIENTED_EDGE ( 'NONE', *, *, #689, .F. ) ;
#1236 = FACE_BOUND ( 'NONE', #270, .T. ) ;
#1237 = CIRCLE ( 'NONE', #489, 0.05000000000000002359 ) ;
#1238 = VECTOR ( 'NONE', #232, 1000.000000000000000 ) ;
#1239 = DIRECTION ( 'NONE',  ( 0.000000000000000000, 0.000000000000000000, -1.000000000000000000 ) ) ;
#1240 = ADVANCED_FACE ( 'NONE', ( #409 ), #1337, .F. ) ;
#1241 =( LENGTH_UNIT ( ) NAMED_UNIT ( * ) SI_UNIT ( .MILLI., .METRE. ) );
#1242 = ORIENTED_EDGE ( 'NONE', *, *, #595, .F. ) ;
#1243 = FACE_OUTER_BOUND ( 'NONE', #737, .T. ) ;
#1244 = EDGE_LOOP ( 'NONE', ( #1200, #856, #175, #1186 ) ) ;
#1245 = DIRECTION ( 'NONE',  ( -0.000000000000000000, 0.000000000000000000, 1.000000000000000000 ) ) ;
#1246 = LINE ( 'NONE', #540, #806 ) ;
#1247 = EDGE_CURVE ( 'NONE', #718, #131, #546, .T. ) ;
#1248 = EDGE_CURVE ( 'NONE', #632, #943, #1165, .T. ) ;
#1249 = EDGE_CURVE ( 'NONE', #494, #376, #1268, .T. ) ;
#1250 = SURFACE_SIDE_STYLE ('',( #840 ) ) ;
#1251 = EDGE_LOOP ( 'NONE', ( #1210, #1091, #1153, #775 ) ) ;
#1252 = LINE ( 'NONE', #622, #833 ) ;
#1253 = PLANE ( 'NONE',  #758 ) ;
#1254 = DIRECTION ( 'NONE',  ( 0.000000000000000000, 0.000000000000000000, -1.000000000000000000 ) ) ;
#1255 = CARTESIAN_POINT ( 'NONE',  ( 0.7999999999999999334, 0.4000000000000000222, 0.3999999999999999667 ) ) ;
#1256 = ORIENTED_EDGE ( 'NONE', *, *, #63, .T. ) ;
#1257 = DIRECTION ( 'NONE',  ( 0.000000000000000000, 1.000000000000000000, 0.000000000000000000 ) ) ;
#1258 = AXIS2_PLACEMENT_3D ( 'NONE', #160, #875, #373 ) ;
#1259 = ORIENTED_EDGE ( 'NONE', *, *, #860, .T. ) ;
#1260 = FACE_OUTER_BOUND ( 'NONE', #1184, .T. ) ;
#1261 = AXIS2_PLACEMENT_3D ( 'NONE', #517, #823, #1133 ) ;
#1262 = LINE ( 'NONE', #1061, #1089 ) ;
#1263 = DIRECTION ( 'NONE',  ( -1.000000000000000000, 0.000000000000000000, 0.000000000000000000 ) ) ;
#1264 = VERTEX_POINT ( 'NONE', #1081 ) ;
#1265 = CARTESIAN_POINT ( 'NONE',  ( 0.7499999999999998890, -0.4000000000000000222, 0.3499999999999999223 ) ) ;
#1266 = EDGE_CURVE ( 'NONE', #480, #981, #956, .T. ) ;
#1267 = CYLINDRICAL_SURFACE ( 'NONE', #662, 0.05000000000000002359 ) ;
#1268 = LINE ( 'NONE', #986, #1032 ) ;
#1269 = CIRCLE ( 'NONE', #690, 0.05000000000000002359 ) ;
#1270 = VERTEX_POINT ( 'NONE', #366 ) ;
#1271 = CARTESIAN_POINT ( 'NONE',  ( 0.5000000000000000000, -0.3300000000000000155, 0.3800000000000000044 ) ) ;
#1272 = DIRECTION ( 'NONE',  ( 0.000000000000000000, -0.000000000000000000, -1.000000000000000000 ) ) ;
#1273 = EDGE_CURVE ( 'NONE', #912, #1270, #537, .T. ) ;
#1274 = LINE ( 'NONE', #352, #418 ) ;
#1275 = SURFACE_STYLE_USAGE ( .BOTH. , #552 ) ;
#1276 = ORIENTED_EDGE ( 'NONE', *, *, #955, .F. ) ;
#1277 = CARTESIAN_POINT ( 'NONE',  ( 0.7499999999999998890, 0.3499999999999999778, -0.3500000000000000333 ) ) ;
#1278 = CARTESIAN_POINT ( 'NONE',  ( 0.5000000000000000000, 0.3300000000000000155, 0.3800000000000000044 ) ) ;
#1279 = DIRECTION ( 'NONE',  ( -0.000000000000000000, -0.000000000000000000, -1.000000000000000000 ) ) ;
#1280 = EDGE_CURVE ( 'NONE', #1051, #1058, #58, .T. ) ;
#1281 = ORIENTED_EDGE ( 'NONE', *, *, #1287, .T. ) ;
#1282 = DIRECTION ( 'NONE',  ( 0.000000000000000000, 1.000000000000000000, -0.000000000000000000 ) ) ;
#1283 = CIRCLE ( 'NONE', #727, 0.05000000000000002359 ) ;
#1284 = EDGE_LOOP ( 'NONE', ( #427, #753, #276, #934 ) ) ;
#1285 = CARTESIAN_POINT ( 'NONE',  ( -0.7499999999999998890, 0.3499999999999999778, -0.4000000000000000777 ) ) ;
#1286 = EDGE_CURVE ( 'NONE', #131, #323, #1283, .T. ) ;
#1287 = EDGE_CURVE ( 'NONE', #660, #1227, #1159, .T. ) ;
#1288 = CARTESIAN_POINT ( 'NONE',  ( -0.5000000000000000000, -0.4000000000000000222, 0.3999999999999999667 ) ) ;
#1289 = LINE ( 'NONE', #368, #1149 ) ;
#1290 = EDGE_CURVE ( 'NONE', #66, #1264, #658, .T. ) ;
#1291 = DIRECTION ( 'NONE',  ( 0.000000000000000000, 0.000000000000000000, 1.000000000000000000 ) ) ;
#1292 = EDGE_LOOP ( 'NONE', ( #214, #498, #602, #728 ) ) ;
#1293 =( NAMED_UNIT ( * ) SI_UNIT ( $, .STERADIAN. ) SOLID_ANGLE_UNIT ( ) );
#1294 = PLANE ( 'NONE',  #892 ) ;
#1295 = CARTESIAN_POINT ( 'NONE',  ( 0.7999999999999999334, 0.000000000000000000, 0.3499999999999999223 ) ) ;
#1296 = ORIENTED_EDGE ( 'NONE', *, *, #1226, .T. ) ;
#1297 = LINE ( 'NONE', #757, #635 ) ;
#1298 = EDGE_CURVE ( 'NONE', #480, #221, #81, .T. ) ;
#1299 = ADVANCED_FACE ( 'NONE', ( #1151 ), #23, .T. ) ;
#1300 = SURFACE_STYLE_USAGE ( .BOTH. , #438 ) ;
#1301 = MECHANICAL_DESIGN_GEOMETRIC_PRESENTATION_REPRESENTATION (  '', ( #357 ), #1025 ) ;
#1302 = CIRCLE ( 'NONE', #1261, 0.05000000000000002359 ) ;
#1303 = CIRCLE ( 'NONE', #30, 0.05000000000000002359 ) ;
#1304 =( NAMED_UNIT ( * ) SI_UNIT ( $, .STERADIAN. ) SOLID_ANGLE_UNIT ( ) );
#1305 = CARTESIAN_POINT ( 'NONE',  ( -0.5000000000000000000, -0.4000000000000000222, -0.4000000000000000777 ) ) ;
#1306 = PRODUCT_RELATED_PRODUCT_CATEGORY ( 'part', '', ( #88 ) ) ;
#1307 =( GEOMETRIC_REPRESENTATION_CONTEXT ( 3 ) GLOBAL_UNCERTAINTY_ASSIGNED_CONTEXT ( ( #1122 ) ) GLOBAL_UNIT_ASSIGNED_CONTEXT ( ( #1320, #784, #288 ) ) REPRESENTATION_CONTEXT ( 'NONE', 'WORKASPACE' ) );
#1308 = LINE ( 'NONE', #387, #336 ) ;
#1309 = ORIENTED_EDGE ( 'NONE', *, *, #1248, .F. ) ;
#1310 = CARTESIAN_POINT ( 'NONE',  ( 0.7499999999999998890, 0.3499999999999999778, -0.3500000000000000333 ) ) ;
#1311 = FILL_AREA_STYLE ('',( #805 ) ) ;
#1312 = ORIENTED_EDGE ( 'NONE', *, *, #1290, .F. ) ;
#1313 = FACE_OUTER_BOUND ( 'NONE', #334, .T. ) ;
#1314 = ORIENTED_EDGE ( 'NONE', *, *, #386, .F. ) ;
#1315 = CARTESIAN_POINT ( 'NONE',  ( 0.7499999999999998890, 0.000000000000000000, 0.3499999999999999223 ) ) ;
#1316 = ADVANCED_FACE ( 'NONE', ( #153 ), #562, .T. ) ;
#1317 = DIRECTION ( 'NONE',  ( 1.000000000000000000, 0.000000000000000000, -0.000000000000000000 ) ) ;
#1318 = VERTEX_POINT ( 'NONE', #181 ) ;
#1319 = CIRCLE ( 'NONE', #1258, 0.05000000000000002359 ) ;
#1320 =( LENGTH_UNIT ( ) NAMED_UNIT ( * ) SI_UNIT ( .MILLI., .METRE. ) );
#1321 = LINE ( 'NONE', #1011, #636 ) ;
#1322 =( GEOMETRIC_REPRESENTATION_CONTEXT ( 3 ) GLOBAL_UNCERTAINTY_ASSIGNED_CONTEXT ( ( #813 ) ) GLOBAL_UNIT_ASSIGNED_CONTEXT ( ( #167, #449, #654 ) ) REPRESENTATION_CONTEXT ( 'NONE', 'WORKASPACE' ) );
#1323 = CIRCLE ( 'NONE', #1213, 0.05000000000000002359 ) ;
#1324 = EDGE_LOOP ( 'NONE', ( #1039, #1155, #199, #363 ) ) ;
#1325 = DIRECTION ( 'NONE',  ( 0.000000000000000000, 0.000000000000000000, 1.000000000000000000 ) ) ;
#1326 = CARTESIAN_POINT ( 'NONE',  ( 0.7499999999999998890, -0.3499999999999999778, -0.3500000000000000333 ) ) ;
#1327 = UNCERTAINTY_MEASURE_WITH_UNIT (LENGTH_MEASURE( 1.000000000000000082E-05 ), #1054, 'distance_accuracy_value', 'NONE');
#1328 = ORIENTED_EDGE ( 'NONE', *, *, #1198, .T. ) ;
#1329 = ADVANCED_FACE ( 'NONE', ( #477 ), #262, .T. ) ;
#1330 = CYLINDRICAL_SURFACE ( 'NONE', #749, 0.05000000000000002359 ) ;
#1331 = ORIENTED_EDGE ( 'NONE', *, *, #670, .F. ) ;
#1332 = FACE_OUTER_BOUND ( 'NONE', #158, .T. ) ;
#1333 = ORIENTED_EDGE ( 'NONE', *, *, #372, .F. ) ;
#1334 = DIRECTION ( 'NONE',  ( -1.000000000000000000, 0.000000000000000000, 0.000000000000000000 ) ) ;
#1335 = CIRCLE ( 'NONE', #1098, 0.05000000000000002359 ) ;
#1336 = CYLINDRICAL_SURFACE ( 'NONE', #268, 0.05000000000000002359 ) ;
#1337 = PLANE ( 'NONE',  #32 ) ;
#1338 = ORIENTED_EDGE ( 'NONE', *, *, #450, .F. ) ;
#1339 = CARTESIAN_POINT ( 'NONE',  ( -0.7499999999999998890, 0.3499999999999999778, 0.3499999999999999223 ) ) ;
ENDSEC;
END-ISO-10303-21;
